{
DisplayStrings = (
R,
"/A-cy",
"="
);
copyright = "Copyright (c) 2011 by Just Be Nice studio. All rights reserved.";
date = "2013-04-17 20:12:33 +0000";
familyName = "Web Symbols";
fontMaster = (
{
ascender = 1640;
capHeight = 1638;
customParameters = (
{
name = TypoAscender;
value = 1640;
},
{
name = TypoDescender;
value = "-408";
},
{
name = postscriptUnderlinePosition;
value = "-153";
}
);
descender = "-408";
id = "927F5022-3E08-455B-85C5-6C9BF0A86A02";
weightValue = 400;
widthValue = 5;
xHeight = 1638;
}
);
glyphs = (
{
glyphname = A;
layers = (
{
layerId = "927F5022-3E08-455B-85C5-6C9BF0A86A02";
name = Regular;
paths = (
{
closed = 1;
nodes = (
"0 183 OFFCURVE",
"57 315 OFFCURVE",
"172 430 CURVE SMOOTH",
"1182 1432 LINE SMOOTH",
"1323 1569 OFFCURVE",
"1487 1638 OFFCURVE",
"1674 1638 CURVE SMOOTH",
"1675 1638 OFFCURVE",
"1676 1638 OFFCURVE",
"1677 1638 CURVE SMOOTH",
"2018 1638 OFFCURVE",
"2279 1379 OFFCURVE",
"2279 1038 CURVE SMOOTH",
"2279 855 OFFCURVE",
"2203 677 OFFCURVE",
"2075 549 CURVE SMOOTH",
"1157 -360 LINE",
"1030 -236 LINE",
"1948 674 LINE SMOOTH",
"2049 771 OFFCURVE",
"2099 892 OFFCURVE",
"2099 1035 CURVE SMOOTH",
"2099 1282 OFFCURVE",
"1921 1460 OFFCURVE",
"1677 1460 CURVE SMOOTH",
"1538 1460 OFFCURVE",
"1415 1409 OFFCURVE",
"1309 1307 CURVE SMOOTH",
"299 305 LINE SMOOTH",
"218 224 OFFCURVE",
"178 134 OFFCURVE",
"178 33 CURVE SMOOTH",
"178 -123 OFFCURVE",
"291 -233 OFFCURVE",
"446 -233 CURVE SMOOTH",
"549 -233 OFFCURVE",
"640 -193 OFFCURVE",
"721 -113 CURVE SMOOTH",
"1493 649 LINE SMOOTH",
"1566 724 OFFCURVE",
"1602 791 OFFCURVE",
"1602 848 CURVE SMOOTH",
"1602 905 OFFCURVE",
"1551 940 OFFCURVE",
"1491 940 CURVE SMOOTH",
"1426 940 OFFCURVE",
"1367 913 OFFCURVE",
"1315 858 CURVE SMOOTH",
"618 170 LINE",
"494 295 LINE",
"1188 983 LINE SMOOTH",
"1278 1073 OFFCURVE",
"1379 1118 OFFCURVE",
"1491 1118 CURVE SMOOTH",
"1650 1118 OFFCURVE",
"1782 1006 OFFCURVE",
"1782 850 CURVE SMOOTH",
"1782 743 OFFCURVE",
"1728 635 OFFCURVE",
"1620 524 CURVE SMOOTH",
"848 -238 LINE SMOOTH",
"733 -353 OFFCURVE",
"599 -410 OFFCURVE",
"446 -410 CURVE SMOOTH",
"193 -410 OFFCURVE",
"0 -222 OFFCURVE",
"0 33 CURVE SMOOTH"
);
}
);
width = 2279;
}
);
unicode = 0041;
},
{
glyphname = B;
layers = (
{
layerId = "927F5022-3E08-455B-85C5-6C9BF0A86A02";
name = Regular;
paths = (
{
closed = 1;
nodes = (
"25 -285 OFFCURVE",
"0 -224 OFFCURVE",
"0 -153 CURVE SMOOTH",
"0 -11 OFFCURVE",
"115 102 OFFCURVE",
"256 102 CURVE SMOOTH",
"397 102 OFFCURVE",
"512 -11 OFFCURVE",
"512 -153 CURVE SMOOTH",
"512 -295 OFFCURVE",
"397 -410 OFFCURVE",
"256 -410 CURVE SMOOTH",
"185 -410 OFFCURVE",
"125 -385 OFFCURVE",
"75 -335 CURVE SMOOTH"
);
},
{
closed = 1;
nodes = (
"0 942 LINE",
"489 942 OFFCURVE",
"929 684 OFFCURVE",
"1171 269 CURVE SMOOTH",
"1292 61 OFFCURVE",
"1352 -165 OFFCURVE",
"1352 -410 CURVE",
"958 -410 LINE",
"958 119 OFFCURVE",
"529 549 OFFCURVE",
"0 549 CURVE"
);
},
{
closed = 1;
nodes = (
"0 1638 LINE",
"555 1638 OFFCURVE",
"1083 1405 OFFCURVE",
"1448 1039 CURVE SMOOTH",
"1813 673 OFFCURVE",
"2048 145 OFFCURVE",
"2048 -410 CURVE",
"1653 -410 LINE",
"1653 38 OFFCURVE",
"1465 467 OFFCURVE",
"1170 762 CURVE SMOOTH",
"874 1057 OFFCURVE",
"448 1245 OFFCURVE",
"0 1245 CURVE"
);
}
);
width = 2048;
}
);
unicode = 0042;
},
{
glyphname = C;
layers = (
{
layerId = "927F5022-3E08-455B-85C5-6C9BF0A86A02";
name = Regular;
paths = (
{
closed = 1;
nodes = (
"0 373 OFFCURVE",
"108 562 OFFCURVE",
"283 666 CURVE",
"272 710 OFFCURVE",
"267 752 OFFCURVE",
"266 793 CURVE",
"266 1113 OFFCURVE",
"526 1372 OFFCURVE",
"846 1372 CURVE SMOOTH",
"987 1372 OFFCURVE",
"1114 1324 OFFCURVE",
"1227 1229 CURVE",
"1344 1477 OFFCURVE",
"1597 1638 OFFCURVE",
"1870 1638 CURVE SMOOTH",
"2263 1638 OFFCURVE",
"2583 1319 OFFCURVE",
"2583 926 CURVE SMOOTH",
"2583 851 OFFCURVE",
"2572 780 OFFCURVE",
"2550 715 CURVE",
"2782 636 OFFCURVE",
"2939 413 OFFCURVE",
"2939 170 CURVE SMOOTH",
"2939 -133 OFFCURVE",
"2705 -385 OFFCURVE",
"2404 -408 CURVE",
"2404 -410 LINE",
"623 -410 LINE",
"623 -408 LINE",
"614 -409 OFFCURVE",
"599 -410 OFFCURVE",
"580 -410 CURVE SMOOTH",
"260 -410 OFFCURVE",
"0 -150 OFFCURVE",
"0 170 CURVE SMOOTH"
);
}
);
width = 2938;
}
);
unicode = 0043;
},
{
glyphname = D;
layers = (
{
layerId = "927F5022-3E08-455B-85C5-6C9BF0A86A02";
name = Regular;
paths = (
{
closed = 1;
nodes = (
"0 -408 LINE",
"0 895 LINE",
"559 895 LINE",
"559 1640 LINE",
"2234 1640 LINE",
"2234 338 LINE",
"1675 338 LINE",
"1675 -408 LINE"
);
},
{
closed = 1;
nodes = (
"186 -221 LINE",
"1489 -221 LINE",
"1489 524 LINE",
"186 524 LINE"
);
},
{
closed = 1;
nodes = (
"745 895 LINE",
"1675 895 LINE",
"1675 524 LINE",
"2048 524 LINE",
"2048 1268 LINE",
"745 1268 LINE"
);
}
);
width = 2234;
}
);
unicode = 0044;
},
{
glyphname = F;
layers = (
{
layerId = "927F5022-3E08-455B-85C5-6C9BF0A86A02";
name = Regular;
paths = (
{
closed = 1;
nodes = (
"0 949 OFFCURVE",
"69 1014 OFFCURVE",
"160 1014 CURVE SMOOTH",
"2689 1014 LINE SMOOTH",
"2780 1014 OFFCURVE",
"2849 949 OFFCURVE",
"2849 858 CURVE SMOOTH",
"2849 838 LINE",
"2710 -233 LINE SMOOTH",
"2697 -329 OFFCURVE",
"2608 -410 OFFCURVE",
"2509 -410 CURVE SMOOTH",
"342 -410 LINE SMOOTH",
"243 -410 OFFCURVE",
"150 -329 OFFCURVE",
"139 -233 CURVE SMOOTH",
"2 838 LINE",
"1 842 OFFCURVE",
"0 849 OFFCURVE",
"0 858 CURVE SMOOTH"
);
},
{
closed = 1;
nodes = (
"160 1194 LINE",
"172 1259 OFFCURVE",
"190 1305 OFFCURVE",
"215 1331 CURVE SMOOTH",
"238 1354 OFFCURVE",
"259 1366 OFFCURVE",
"279 1366 CURVE SMOOTH",
"281 1366 OFFCURVE",
"283 1366 OFFCURVE",
"286 1366 CURVE",
"292 1365 OFFCURVE",
"298 1365 OFFCURVE",
"304 1365 CURVE SMOOTH",
"337 1365 OFFCURVE",
"385 1368 OFFCURVE",
"408 1432 CURVE SMOOTH",
"457 1579 LINE",
"562 1618 OFFCURVE",
"704 1638 OFFCURVE",
"883 1638 CURVE SMOOTH",
"1004 1638 OFFCURVE",
"1116 1618 OFFCURVE",
"1219 1579 CURVE",
"1270 1432 LINE",
"1335 1369 OFFCURVE",
"1330 1372 OFFCURVE",
"1425 1372 CURVE SMOOTH",
"2419 1372 LINE SMOOTH",
"2648 1372 OFFCURVE",
"2662 1342 OFFCURVE",
"2689 1194 CURVE"
);
}
);
width = 2848;
}
);
unicode = 0046;
},
{
glyphname = H;
layers = (
{
layerId = "927F5022-3E08-455B-85C5-6C9BF0A86A02";
name = Regular;
paths = (
{
closed = 1;
nodes = (
"0 614 LINE",
"1024 1638 LINE",
"1339 1323 LINE",
"631 614 LINE",
"1339 -94 LINE",
"1024 -410 LINE"
);
},
{
closed = 1;
nodes = (
"1733 -94 LINE",
"2441 614 LINE",
"1733 1323 LINE",
"2048 1638 LINE",
"3072 614 LINE",
"2048 -410 LINE"
);
}
);
width = 3072;
}
);
unicode = 0048;
},
{
glyphname = I;
layers = (
{
layerId = "927F5022-3E08-455B-85C5-6C9BF0A86A02";
name = Regular;
paths = (
{
closed = 1;
nodes = (
"0 -410 LINE",
"0 1638 LINE",
"2785 1638 LINE",
"2785 -410 LINE"
);
},
{
closed = 1;
nodes = (
"246 -164 LINE",
"2540 -164 LINE",
"2540 1393 LINE",
"246 1393 LINE"
);
},
{
closed = 1;
nodes = (
"410 12 LINE",
"435 61 OFFCURVE",
"527 253 OFFCURVE",
"687 586 CURVE SMOOTH",
"846 919 OFFCURVE",
"944 1123 OFFCURVE",
"981 1198 CURVE",
"982 1201 OFFCURVE",
"985 1202 OFFCURVE",
"988 1203 CURVE",
"989 1203 OFFCURVE",
"989 1203 OFFCURVE",
"990 1203 CURVE SMOOTH",
"993 1203 OFFCURVE",
"994 1202 OFFCURVE",
"995 1200 CURVE",
"1632 410 LINE",
"1944 659 LINE",
"1958 659 LINE",
"1960 655 LINE",
"2013 587 OFFCURVE",
"2083 481 OFFCURVE",
"2168 338 CURVE SMOOTH",
"2253 195 OFFCURVE",
"2325 87 OFFCURVE",
"2382 14 CURVE",
"2384 13 OFFCURVE",
"2385 12 OFFCURVE",
"2385 10 CURVE SMOOTH",
"2385 9 OFFCURVE",
"2385 7 OFFCURVE",
"2384 6 CURVE",
"2383 2 OFFCURVE",
"2380 0 OFFCURVE",
"2376 0 CURVE SMOOTH",
"420 0 LINE",
"418 0 LINE SMOOTH",
"413 0 OFFCURVE",
"410 3 OFFCURVE",
"410 8 CURVE SMOOTH"
);
},
{
closed = 1;
nodes = (
"1982 899 OFFCURVE",
"1966 938 OFFCURVE",
"1966 983 CURVE SMOOTH",
"1966 1074 OFFCURVE",
"2039 1147 OFFCURVE",
"2130 1147 CURVE SMOOTH",
"2221 1147 OFFCURVE",
"2294 1074 OFFCURVE",
"2294 983 CURVE SMOOTH",
"2294 892 OFFCURVE",
"2221 819 OFFCURVE",
"2130 819 CURVE SMOOTH",
"2085 819 OFFCURVE",
"2046 835 OFFCURVE",
"2014 867 CURVE SMOOTH"
);
}
);
width = 2785;
}
);
unicode = 0049;
},
{
glyphname = J;
layers = (
{
layerId = "927F5022-3E08-455B-85C5-6C9BF0A86A02";
name = Regular;
paths = (
{
closed = 1;
nodes = (
"0 737 LINE",
"614 1393 LINE",
"1229 737 LINE",
"737 737 LINE",
"737 246 LINE",
"1556 246 LINE",
"1796 0 LINE",
"494 0 LINE",
"492 737 LINE"
);
},
{
closed = 1;
nodes = (
"989 1393 LINE",
"2292 1393 LINE",
"2294 655 LINE",
"2785 655 LINE",
"2171 0 LINE",
"1556 655 LINE",
"2048 655 LINE",
"2048 1147 LINE",
"1229 1147 LINE"
);
}
);
width = 2785;
}
);
unicode = 004A;
},
{
glyphname = K;
layers = (
{
layerId = "927F5022-3E08-455B-85C5-6C9BF0A86A02";
name = Regular;
paths = (
{
closed = 1;
nodes = (
"0 288 OFFCURVE",
"53 416 OFFCURVE",
"160 520 CURVE SMOOTH",
"518 881 LINE SMOOTH",
"624 987 OFFCURVE",
"752 1040 OFFCURVE",
"902 1040 CURVE SMOOTH",
"903 1040 OFFCURVE",
"904 1040 OFFCURVE",
"905 1040 CURVE SMOOTH",
"1037 1040 OFFCURVE",
"1154 997 OFFCURVE",
"1255 911 CURVE",
"1020 676 LINE",
"985 699 OFFCURVE",
"946 711 OFFCURVE",
"905 711 CURVE SMOOTH",
"845 711 OFFCURVE",
"794 690 OFFCURVE",
"752 647 CURVE SMOOTH",
"393 287 LINE",
"351 248 OFFCURVE",
"330 197 OFFCURVE",
"330 135 CURVE SMOOTH",
"330 15 OFFCURVE",
"425 -80 OFFCURVE",
"545 -80 CURVE SMOOTH",
"613 -80 OFFCURVE",
"690 -46 OFFCURVE",
"713 14 CURVE",
"1200 14 LINE",
"930 -250 LINE SMOOTH",
"821 -357 OFFCURVE",
"692 -410 OFFCURVE",
"545 -410 CURVE SMOOTH",
"245 -410 OFFCURVE",
"0 -165 OFFCURVE",
"0 135 CURVE SMOOTH"
);
},
{
closed = 1;
nodes = (
"1028 553 LINE",
"1063 530 OFFCURVE",
"1102 518 OFFCURVE",
"1143 518 CURVE SMOOTH",
"1203 518 OFFCURVE",
"1254 539 OFFCURVE",
"1296 582 CURVE SMOOTH",
"1655 942 LINE",
"1697 981 OFFCURVE",
"1718 1032 OFFCURVE",
"1718 1094 CURVE SMOOTH",
"1718 1214 OFFCURVE",
"1623 1309 OFFCURVE",
"1503 1309 CURVE SMOOTH",
"1435 1309 OFFCURVE",
"1358 1275 OFFCURVE",
"1335 1214 CURVE",
"848 1214 LINE",
"1118 1479 LINE SMOOTH",
"1227 1585 OFFCURVE",
"1354 1638 OFFCURVE",
"1500 1638 CURVE SMOOTH",
"1501 1638 OFFCURVE",
"1502 1638 OFFCURVE",
"1503 1638 CURVE SMOOTH",
"1803 1638 OFFCURVE",
"2048 1394 OFFCURVE",
"2048 1094 CURVE SMOOTH",
"2048 941 OFFCURVE",
"1995 813 OFFCURVE",
"1888 709 CURVE SMOOTH",
"1530 348 LINE SMOOTH",
"1423 241 OFFCURVE",
"1294 188 OFFCURVE",
"1143 188 CURVE SMOOTH",
"1010 188 OFFCURVE",
"894 231 OFFCURVE",
"793 317 CURVE"
);
}
);
width = 2048;
}
);
unicode = 004B;
},
{
glyphname = L;
layers = (
{
layerId = "927F5022-3E08-455B-85C5-6C9BF0A86A02";
name = Regular;
paths = (
{
closed = 1;
nodes = (
"82 373 OFFCURVE",
"0 570 OFFCURVE",
"0 801 CURVE SMOOTH",
"0 1262 OFFCURVE",
"377 1638 OFFCURVE",
"838 1638 CURVE SMOOTH",
"1299 1638 OFFCURVE",
"1675 1262 OFFCURVE",
"1675 801 CURVE SMOOTH",
"1675 628 OFFCURVE",
"1626 470 OFFCURVE",
"1528 328 CURVE",
"2048 -195 LINE",
"1833 -410 LINE",
"1313 111 LINE",
"1024 -85 OFFCURVE",
"574 -119 OFFCURVE",
"246 209 CURVE SMOOTH"
);
},
{
closed = 1;
nodes = (
"334 1087 OFFCURVE",
"279 955 OFFCURVE",
"279 801 CURVE SMOOTH",
"279 492 OFFCURVE",
"529 244 OFFCURVE",
"838 244 CURVE SMOOTH",
"1146 244 OFFCURVE",
"1395 492 OFFCURVE",
"1395 801 CURVE SMOOTH",
"1395 1109 OFFCURVE",
"1146 1360 OFFCURVE",
"838 1360 CURVE SMOOTH",
"683 1360 OFFCURVE",
"552 1305 OFFCURVE",
"443 1196 CURVE SMOOTH"
);
}
);
width = 2048;
}
);
unicode = 004C;
},
{
glyphname = M;
layers = (
{
layerId = "927F5022-3E08-455B-85C5-6C9BF0A86A02";
name = Regular;
paths = (
{
closed = 1;
nodes = (
"0 -410 LINE",
"0 1638 LINE",
"2785 1638 LINE",
"2785 -410 LINE"
);
},
{
closed = 1;
nodes = (
"164 -82 LINE",
"164 -246 LINE",
"410 -246 LINE",
"410 -82 LINE"
);
},
{
closed = 1;
nodes = (
"164 82 LINE",
"819 82 LINE",
"819 1147 LINE",
"164 1147 LINE"
);
},
{
closed = 1;
nodes = (
"164 1311 LINE",
"410 1311 LINE",
"410 1475 LINE",
"164 1475 LINE"
);
},
{
closed = 1;
nodes = (
"573 -82 LINE",
"573 -246 LINE",
"819 -246 LINE",
"819 -82 LINE"
);
},
{
closed = 1;
nodes = (
"573 1311 LINE",
"819 1311 LINE",
"819 1475 LINE",
"573 1475 LINE"
);
},
{
closed = 1;
nodes = (
"1065 -82 LINE",
"1065 -246 LINE",
"1311 -246 LINE",
"1311 -82 LINE"
);
},
{
closed = 1;
nodes = (
"1065 82 LINE",
"1720 82 LINE",
"1720 1147 LINE",
"1065 1147 LINE"
);
},
{
closed = 1;
nodes = (
"1065 1311 LINE",
"1311 1311 LINE",
"1311 1475 LINE",
"1065 1475 LINE"
);
},
{
closed = 1;
nodes = (
"1475 -82 LINE",
"1475 -246 LINE",
"1720 -246 LINE",
"1720 -82 LINE"
);
},
{
closed = 1;
nodes = (
"1475 1311 LINE",
"1720 1311 LINE",
"1720 1475 LINE",
"1475 1475 LINE"
);
},
{
closed = 1;
nodes = (
"1966 -82 LINE",
"1966 -246 LINE",
"2212 -246 LINE",
"2212 -82 LINE"
);
},
{
closed = 1;
nodes = (
"1966 82 LINE",
"2621 82 LINE",
"2621 1147 LINE",
"1966 1147 LINE"
);
},
{
closed = 1;
nodes = (
"1966 1311 LINE",
"2212 1311 LINE",
"2212 1475 LINE",
"1966 1475 LINE"
);
},
{
closed = 1;
nodes = (
"2376 -82 LINE",
"2376 -246 LINE",
"2621 -246 LINE",
"2621 -82 LINE"
);
},
{
closed = 1;
nodes = (
"2376 1311 LINE",
"2621 1311 LINE",
"2621 1475 LINE",
"2376 1475 LINE"
);
}
);
width = 2785;
}
);
unicode = 004D;
},
{
glyphname = N;
layers = (
{
layerId = "927F5022-3E08-455B-85C5-6C9BF0A86A02";
name = Regular;
paths = (
{
closed = 1;
nodes = (
"0 1051 LINE SMOOTH",
"0 1398 OFFCURVE",
"244 1638 OFFCURVE",
"588 1638 CURVE SMOOTH",
"809 1638 OFFCURVE",
"932 1559 OFFCURVE",
"1087 1374 CURVE",
"1246 1559 OFFCURVE",
"1368 1638 OFFCURVE",
"1587 1638 CURVE SMOOTH",
"1931 1638 OFFCURVE",
"2177 1398 OFFCURVE",
"2177 1051 CURVE SMOOTH",
"2177 928 LINE SMOOTH",
"2177 539 OFFCURVE",
"1814 93 OFFCURVE",
"1087 -410 CURVE",
"362 91 OFFCURVE",
"0 537 OFFCURVE",
"0 928 CURVE SMOOTH"
);
}
);
width = 2177;
}
);
unicode = 004E;
},
{
glyphname = O;
layers = (
{
layerId = "927F5022-3E08-455B-85C5-6C9BF0A86A02";
name = Regular;
paths = (
{
closed = 1;
nodes = (
"0 1051 LINE SMOOTH",
"0 1398 OFFCURVE",
"244 1638 OFFCURVE",
"588 1638 CURVE SMOOTH",
"809 1638 OFFCURVE",
"932 1559 OFFCURVE",
"1087 1374 CURVE",
"1246 1559 OFFCURVE",
"1368 1638 OFFCURVE",
"1587 1638 CURVE SMOOTH",
"1931 1638 OFFCURVE",
"2177 1398 OFFCURVE",
"2177 1051 CURVE SMOOTH",
"2177 928 LINE SMOOTH",
"2177 539 OFFCURVE",
"1814 93 OFFCURVE",
"1087 -410 CURVE",
"362 91 OFFCURVE",
"0 537 OFFCURVE",
"0 928 CURVE SMOOTH"
);
},
{
closed = 1;
nodes = (
"238 938 LINE SMOOTH",
"238 897 OFFCURVE",
"249 846 OFFCURVE",
"272 784 CURVE SMOOTH",
"365 512 OFFCURVE",
"636 211 OFFCURVE",
"1087 -119 CURVE",
"1536 207 OFFCURVE",
"1809 508 OFFCURVE",
"1905 784 CURVE",
"1926 853 OFFCURVE",
"1937 904 OFFCURVE",
"1937 938 CURVE SMOOTH",
"1937 1040 LINE SMOOTH",
"1937 1199 OFFCURVE",
"1816 1382 OFFCURVE",
"1663 1399 CURVE",
"1646 1402 OFFCURVE",
"1621 1403 OFFCURVE",
"1587 1403 CURVE SMOOTH",
"1442 1403 OFFCURVE",
"1385 1356 OFFCURVE",
"1270 1223 CURVE SMOOTH",
"1087 1008 LINE",
"905 1223 LINE SMOOTH",
"790 1356 OFFCURVE",
"732 1403 OFFCURVE",
"588 1403 CURVE SMOOTH",
"555 1403 OFFCURVE",
"530 1402 OFFCURVE",
"512 1399 CURVE",
"359 1383 OFFCURVE",
"246 1207 OFFCURVE",
"238 1040 CURVE"
);
}
);
width = 2177;
}
);
unicode = 004F;
},
{
glyphname = P;
layers = (
{
layerId = "927F5022-3E08-455B-85C5-6C9BF0A86A02";
name = Regular;
paths = (
{
closed = 1;
nodes = (
"46 258 OFFCURVE",
"0 429 OFFCURVE",
"0 615 CURVE SMOOTH",
"0 986 OFFCURVE",
"196 1318 OFFCURVE",
"510 1501 CURVE SMOOTH",
"667 1592 OFFCURVE",
"838 1638 OFFCURVE",
"1024 1638 CURVE SMOOTH",
"1396 1638 OFFCURVE",
"1728 1443 OFFCURVE",
"1911 1129 CURVE SMOOTH",
"2002 972 OFFCURVE",
"2048 800 OFFCURVE",
"2048 615 CURVE SMOOTH",
"2048 243 OFFCURVE",
"1853 -89 OFFCURVE",
"1539 -272 CURVE SMOOTH",
"1382 -364 OFFCURVE",
"1210 -410 OFFCURVE",
"1024 -410 CURVE SMOOTH",
"652 -410 OFFCURVE",
"320 -213 OFFCURVE",
"137 101 CURVE SMOOTH"
);
},
{
closed = 1;
nodes = (
"240 182 OFFCURVE",
"592 -170 OFFCURVE",
"1024 -170 CURVE SMOOTH",
"1196 -170 OFFCURVE",
"1350 -119 OFFCURVE",
"1487 -18 CURVE",
"1483 -14 LINE",
"1548 34 OFFCURVE",
"1605 91 OFFCURVE",
"1653 156 CURVE",
"1657 152 LINE",
"1758 288 OFFCURVE",
"1808 442 OFFCURVE",
"1808 614 CURVE SMOOTH",
"1808 1046 OFFCURVE",
"1456 1399 OFFCURVE",
"1024 1399 CURVE SMOOTH",
"852 1399 OFFCURVE",
"698 1348 OFFCURVE",
"561 1247 CURVE",
"565 1243 LINE",
"500 1195 OFFCURVE",
"443 1138 OFFCURVE",
"395 1073 CURVE",
"391 1077 LINE",
"290 940 OFFCURVE",
"239 786 OFFCURVE",
"240 614 CURVE SMOOTH"
);
},
{
closed = 1;
nodes = (
"901 1147 LINE SMOOTH",
"901 1215 OFFCURVE",
"956 1270 OFFCURVE",
"1024 1270 CURVE SMOOTH",
"1092 1270 OFFCURVE",
"1147 1215 OFFCURVE",
"1147 1147 CURVE SMOOTH",
"1147 502 LINE",
"1356 291 LINE",
"1381 269 OFFCURVE",
"1393 240 OFFCURVE",
"1393 205 CURVE SMOOTH",
"1393 137 OFFCURVE",
"1338 82 OFFCURVE",
"1270 82 CURVE SMOOTH",
"1235 82 OFFCURVE",
"1206 94 OFFCURVE",
"1184 119 CURVE",
"938 365 LINE SMOOTH",
"913 390 OFFCURVE",
"901 432 OFFCURVE",
"901 492 CURVE SMOOTH"
);
}
);
width = 2048;
}
);
unicode = 0050;
},
{
glyphname = Q;
layers = (
{
layerId = "927F5022-3E08-455B-85C5-6C9BF0A86A02";
name = Regular;
paths = (
{
closed = 1;
nodes = (
"0 1458 LINE SMOOTH",
"0 1557 OFFCURVE",
"81 1638 OFFCURVE",
"180 1638 CURVE SMOOTH",
"1868 1638 LINE SMOOTH",
"1967 1638 OFFCURVE",
"2048 1557 OFFCURVE",
"2048 1458 CURVE SMOOTH",
"2048 -229 LINE SMOOTH",
"2048 -328 OFFCURVE",
"1967 -410 OFFCURVE",
"1868 -410 CURVE SMOOTH",
"180 -410 LINE SMOOTH",
"81 -410 OFFCURVE",
"0 -328 OFFCURVE",
"0 -229 CURVE SMOOTH"
);
},
{
closed = 1;
nodes = (
"559 349 OFFCURVE",
"659 283 OFFCURVE",
"860 244 CURVE",
"621 -4 LINE SMOOTH",
"596 -29 OFFCURVE",
"584 -59 OFFCURVE",
"584 -94 CURVE SMOOTH",
"584 -165 OFFCURVE",
"638 -223 OFFCURVE",
"707 -223 CURVE SMOOTH",
"741 -223 OFFCURVE",
"770 -211 OFFCURVE",
"795 -186 CURVE SMOOTH",
"1024 51 LINE",
"1253 -186 LINE SMOOTH",
"1278 -211 OFFCURVE",
"1307 -223 OFFCURVE",
"1342 -223 CURVE SMOOTH",
"1410 -223 OFFCURVE",
"1464 -165 OFFCURVE",
"1464 -94 CURVE SMOOTH",
"1464 -59 OFFCURVE",
"1452 -29 OFFCURVE",
"1427 -4 CURVE SMOOTH",
"1188 244 LINE",
"1389 285 OFFCURVE",
"1489 351 OFFCURVE",
"1489 444 CURVE SMOOTH",
"1489 515 OFFCURVE",
"1434 573 OFFCURVE",
"1366 573 CURVE SMOOTH",
"1345 573 OFFCURVE",
"1326 568 OFFCURVE",
"1309 557 CURVE",
"1214 508 OFFCURVE",
"1118 483 OFFCURVE",
"1022 483 CURVE SMOOTH",
"928 483 OFFCURVE",
"834 508 OFFCURVE",
"739 557 CURVE",
"717 566 OFFCURVE",
"698 571 OFFCURVE",
"682 571 CURVE SMOOTH",
"614 571 OFFCURVE",
"559 514 OFFCURVE",
"559 442 CURVE SMOOTH"
);
},
{
closed = 1;
nodes = (
"644 1237 OFFCURVE",
"604 1135 OFFCURVE",
"604 1016 CURVE SMOOTH",
"604 779 OFFCURVE",
"787 580 OFFCURVE",
"1024 580 CURVE SMOOTH",
"1261 580 OFFCURVE",
"1444 779 OFFCURVE",
"1444 1016 CURVE SMOOTH",
"1444 1253 OFFCURVE",
"1261 1452 OFFCURVE",
"1024 1452 CURVE SMOOTH",
"905 1452 OFFCURVE",
"806 1409 OFFCURVE",
"725 1323 CURVE SMOOTH"
);
},
{
closed = 1;
nodes = (
"867 924 OFFCURVE",
"850 967 OFFCURVE",
"850 1016 CURVE SMOOTH",
"850 1115 OFFCURVE",
"925 1196 OFFCURVE",
"1024 1196 CURVE SMOOTH",
"1123 1196 OFFCURVE",
"1198 1115 OFFCURVE",
"1198 1016 CURVE SMOOTH",
"1198 917 OFFCURVE",
"1123 836 OFFCURVE",
"1024 836 CURVE SMOOTH",
"975 836 OFFCURVE",
"933 854 OFFCURVE",
"900 889 CURVE SMOOTH"
);
}
);
width = 2048;
}
);
unicode = 0051;
},
{
glyphname = R;
lastChange = "2013-04-17 23:18:59 +0300";
layers = (
{
layerId = "927F5022-3E08-455B-85C5-6C9BF0A86A02";
name = Regular;
paths = (
{
closed = 1;
nodes = (
"0 879 OFFCURVE",
"33 895 OFFCURVE",
"100 895 CURVE SMOOTH",
"797 893 LINE",
"1010 1556 LINE SMOOTH",
"1027 1611 OFFCURVE",
"1048 1638 OFFCURVE",
"1075 1638 CURVE SMOOTH",
"1101 1638 OFFCURVE",
"1122 1611 OFFCURVE",
"1139 1556 CURVE SMOOTH",
"1356 893 LINE",
"2050 895 LINE SMOOTH",
"2117 895 OFFCURVE",
"2150 880 OFFCURVE",
"2150 850 CURVE SMOOTH",
"2150 829 OFFCURVE",
"2130 803 OFFCURVE",
"2091 772 CURVE",
"1528 362 LINE",
"1743 -299 LINE SMOOTH",
"1750 -322 OFFCURVE",
"1753 -343 OFFCURVE",
"1753 -360 CURVE SMOOTH",
"1753 -425 OFFCURVE",
"1695 -422 OFFCURVE",
"1638 -375 CURVE",
"1075 33 LINE",
"512 -375 LINE SMOOTH",
"481 -398 OFFCURVE",
"454 -410 OFFCURVE",
"432 -410 CURVE SMOOTH",
"407 -410 OFFCURVE",
"395 -394 OFFCURVE",
"395 -362 CURVE SMOOTH",
"395 -347 OFFCURVE",
"399 -326 OFFCURVE",
"408 -299 CURVE SMOOTH",
"623 362 LINE",
"59 772 LINE SMOOTH",
"20 801 OFFCURVE",
"0 826 OFFCURVE",
"0 848 CURVE SMOOTH"
);
}
);
width = 2150;
}
);
unicode = 0052;
},
{
glyphname = S;
layers = (
{
layerId = "927F5022-3E08-455B-85C5-6C9BF0A86A02";
name = Regular;
paths = (
{
closed = 1;
nodes = (
"0 471 LINE",
"0 762 LINE",
"408 819 LINE",
"417 848 OFFCURVE",
"430 878 OFFCURVE",
"446 911 CURVE",
"201 1237 LINE",
"408 1442 LINE",
"735 1198 LINE",
"756 1209 OFFCURVE",
"788 1222 OFFCURVE",
"831 1239 CURVE",
"889 1638 LINE",
"1182 1638 LINE",
"1239 1239 LINE",
"1269 1230 OFFCURVE",
"1302 1217 OFFCURVE",
"1337 1200 CURVE",
"1661 1440 LINE",
"1870 1235 LINE",
"1626 915 LINE",
"1644 878 OFFCURVE",
"1658 846 OFFCURVE",
"1667 817 CURVE",
"2048 762 LINE",
"2048 471 LINE",
"1669 418 LINE",
"1656 381 OFFCURVE",
"1641 347 OFFCURVE",
"1626 315 CURVE",
"1872 -6 LINE",
"1663 -211 LINE",
"1337 31 LINE",
"1310 18 OFFCURVE",
"1275 3 OFFCURVE",
"1233 -12 CURVE",
"1171 -410 LINE",
"879 -410 LINE",
"823 -6 LINE",
"794 3 OFFCURVE",
"765 16 OFFCURVE",
"735 31 CURVE",
"406 -213 LINE",
"199 -8 LINE",
"446 319 LINE",
"431 348 OFFCURVE",
"418 379 OFFCURVE",
"408 414 CURVE"
);
},
{
closed = 1;
nodes = (
"768 766 OFFCURVE",
"739 696 OFFCURVE",
"739 615 CURVE SMOOTH",
"739 451 OFFCURVE",
"872 319 OFFCURVE",
"1036 319 CURVE SMOOTH",
"1200 319 OFFCURVE",
"1335 451 OFFCURVE",
"1335 615 CURVE SMOOTH",
"1335 778 OFFCURVE",
"1200 909 OFFCURVE",
"1036 909 CURVE SMOOTH",
"954 909 OFFCURVE",
"884 880 OFFCURVE",
"826 823 CURVE SMOOTH"
);
}
);
width = 2048;
}
);
unicode = 0053;
},
{
glyphname = T;
layers = (
{
layerId = "927F5022-3E08-455B-85C5-6C9BF0A86A02";
name = Regular;
paths = (
{
closed = 1;
nodes = (
"0 285 OFFCURVE",
"27 380 OFFCURVE",
"61 450 CURVE SMOOTH",
"95 520 OFFCURVE",
"166 582 OFFCURVE",
"221 622 CURVE SMOOTH",
"276 661 OFFCURVE",
"383 700 OFFCURVE",
"449 720 CURVE SMOOTH",
"515 740 OFFCURVE",
"646 764 OFFCURVE",
"710 773 CURVE SMOOTH",
"742 778 OFFCURVE",
"787 784 OFFCURVE",
"844 791 CURVE SMOOTH",
"912 799 OFFCURVE",
"980 809 OFFCURVE",
"1049 821 CURVE SMOOTH",
"1114 832 OFFCURVE",
"1137 837 OFFCURVE",
"1194 858 CURVE SMOOTH",
"1251 879 OFFCURVE",
"1276 900 OFFCURVE",
"1300 945 CURVE",
"1311 968 OFFCURVE",
"1317 994 OFFCURVE",
"1317 1024 CURVE SMOOTH",
"1317 1196 OFFCURVE",
"1201 1282 OFFCURVE",
"969 1282 CURVE SMOOTH",
"732 1282 OFFCURVE",
"621 1209 OFFCURVE",
"586 985 CURVE",
"86 985 LINE",
"102 1230 OFFCURVE",
"211 1408 OFFCURVE",
"382 1504 CURVE SMOOTH",
"553 1599 OFFCURVE",
"746 1638 OFFCURVE",
"983 1638 CURVE SMOOTH",
"1168 1638 OFFCURVE",
"1317 1622 OFFCURVE",
"1467 1565 CURVE SMOOTH",
"1617 1508 OFFCURVE",
"1717 1422 OFFCURVE",
"1780 1271 CURVE SMOOTH",
"1811 1195 OFFCURVE",
"1827 1107 OFFCURVE",
"1827 1008 CURVE SMOOTH",
"1827 172 LINE SMOOTH",
"1827 -3 OFFCURVE",
"1824 -36 OFFCURVE",
"1845 -173 CURVE SMOOTH",
"1856 -242 OFFCURVE",
"1872 -302 OFFCURVE",
"1894 -354 CURVE",
"1354 -354 LINE",
"1333 -299 OFFCURVE",
"1321 -237 OFFCURVE",
"1317 -166 CURVE",
"1153 -329 OFFCURVE",
"944 -410 OFFCURVE",
"690 -410 CURVE SMOOTH",
"430 -410 OFFCURVE",
"225 -336 OFFCURVE",
"97 -155 CURVE SMOOTH",
"32 -65 OFFCURVE",
"0 45 OFFCURVE",
"0 176 CURVE SMOOTH"
);
},
{
closed = 1;
nodes = (
"547 30 OFFCURVE",
"668 -61 OFFCURVE",
"840 -61 CURVE SMOOTH",
"1121 -61 OFFCURVE",
"1313 95 OFFCURVE",
"1313 371 CURVE SMOOTH",
"1313 588 LINE",
"1222 536 OFFCURVE",
"1056 507 OFFCURVE",
"929 488 CURVE SMOOTH",
"802 468 OFFCURVE",
"671 443 OFFCURVE",
"600 361 CURVE SMOOTH",
"565 320 OFFCURVE",
"547 266 OFFCURVE",
"547 199 CURVE SMOOTH"
);
}
);
width = 1894;
}
);
unicode = 0054;
},
{
glyphname = U;
layers = (
{
layerId = "927F5022-3E08-455B-85C5-6C9BF0A86A02";
name = Regular;
paths = (
{
closed = 1;
nodes = (
"0 -240 OFFCURVE",
"1 -215 OFFCURVE",
"2 -205 CURVE",
"35 -72 OFFCURVE",
"200 29 OFFCURVE",
"362 77 CURVE SMOOTH",
"524 125 OFFCURVE",
"733 208 OFFCURVE",
"817 307 CURVE",
"840 337 OFFCURVE",
"852 363 OFFCURVE",
"852 385 CURVE SMOOTH",
"852 415 OFFCURVE",
"844 465 OFFCURVE",
"829 535 CURVE SMOOTH",
"818 592 OFFCURVE",
"802 629 OFFCURVE",
"776 677 CURVE SMOOTH",
"763 701 OFFCURVE",
"752 722 OFFCURVE",
"743 741 CURVE SMOOTH",
"722 789 OFFCURVE",
"700 879 OFFCURVE",
"676 1012 CURVE SMOOTH",
"668 1063 OFFCURVE",
"664 1114 OFFCURVE",
"664 1165 CURVE SMOOTH",
"664 1452 OFFCURVE",
"812 1638 OFFCURVE",
"1096 1638 CURVE SMOOTH",
"1380 1638 OFFCURVE",
"1528 1452 OFFCURVE",
"1528 1165 CURVE SMOOTH",
"1528 1123 OFFCURVE",
"1523 1072 OFFCURVE",
"1513 1012 CURVE SMOOTH",
"1494 891 OFFCURVE",
"1472 800 OFFCURVE",
"1448 741 CURVE SMOOTH",
"1440 722 OFFCURVE",
"1430 700 OFFCURVE",
"1417 677 CURVE SMOOTH",
"1391 629 OFFCURVE",
"1373 592 OFFCURVE",
"1362 535 CURVE SMOOTH",
"1347 466 OFFCURVE",
"1339 416 OFFCURVE",
"1339 385 CURVE SMOOTH",
"1339 360 OFFCURVE",
"1351 334 OFFCURVE",
"1374 307 CURVE SMOOTH",
"1458 208 OFFCURVE",
"1668 125 OFFCURVE",
"1829 77 CURVE SMOOTH",
"1990 29 OFFCURVE",
"2155 -70 OFFCURVE",
"2187 -205 CURVE SMOOTH",
"2190 -216 OFFCURVE",
"2191 -242 OFFCURVE",
"2191 -281 CURVE SMOOTH",
"2191 -310 OFFCURVE",
"2190 -353 OFFCURVE",
"2187 -410 CURVE",
"2 -410 LINE",
"2 -397 OFFCURVE",
"2 -375 OFFCURVE",
"1 -346 CURVE SMOOTH",
"0 -317 OFFCURVE",
"0 -296 OFFCURVE",
"0 -281 CURVE SMOOTH"
);
}
);
width = 2191;
}
);
unicode = 0055;
},
{
glyphname = V;
layers = (
{
layerId = "927F5022-3E08-455B-85C5-6C9BF0A86A02";
name = Regular;
paths = (
{
closed = 1;
nodes = (
"0 -408 LINE",
"0 422 LINE",
"829 422 LINE",
"516 109 LINE",
"623 24 OFFCURVE",
"744 -18 OFFCURVE",
"879 -18 CURVE SMOOTH",
"1182 -18 OFFCURVE",
"1436 218 OFFCURVE",
"1460 518 CURVE",
"1753 518 LINE",
"1729 54 OFFCURVE",
"1343 -309 OFFCURVE",
"879 -309 CURVE SMOOTH",
"663 -309 OFFCURVE",
"472 -239 OFFCURVE",
"307 -100 CURVE"
);
},
{
closed = 1;
nodes = (
"2 715 LINE",
"26 1179 OFFCURVE",
"411 1542 OFFCURVE",
"879 1542 CURVE SMOOTH",
"1093 1542 OFFCURVE",
"1283 1472 OFFCURVE",
"1448 1333 CURVE",
"1755 1640 LINE",
"1755 811 LINE",
"926 811 LINE",
"1239 1124 LINE",
"1134 1209 OFFCURVE",
"1014 1251 OFFCURVE",
"879 1251 CURVE SMOOTH",
"576 1251 OFFCURVE",
"319 1015 OFFCURVE",
"295 715 CURVE"
);
}
);
width = 1755;
}
);
unicode = 0056;
},
{
glyphname = W;
layers = (
{
layerId = "927F5022-3E08-455B-85C5-6C9BF0A86A02";
name = Regular;
paths = (
{
closed = 1;
nodes = (
"0 -203 OFFCURVE",
"12 -162 OFFCURVE",
"37 -119 CURVE SMOOTH",
"981 1528 LINE SMOOTH",
"1026 1603 OFFCURVE",
"1079 1641 OFFCURVE",
"1140 1641 CURVE",
"1140 1641 OFFCURVE",
"1140 1641 OFFCURVE",
"1141 1640 CURVE",
"1202 1640 OFFCURVE",
"1254 1603 OFFCURVE",
"1296 1528 CURVE SMOOTH",
"2243 -121 LINE SMOOTH",
"2267 -165 OFFCURVE",
"2279 -206 OFFCURVE",
"2279 -244 CURVE SMOOTH",
"2279 -351 OFFCURVE",
"2194 -408 OFFCURVE",
"2085 -408 CURVE SMOOTH",
"195 -408 LINE SMOOTH",
"86 -408 OFFCURVE",
"0 -348 OFFCURVE",
"0 -244 CURVE SMOOTH"
);
},
{
closed = 1;
nodes = (
"1011 84 OFFCURVE",
"997 50 OFFCURVE",
"997 11 CURVE SMOOTH",
"997 -69 OFFCURVE",
"1062 -133 OFFCURVE",
"1139 -133 CURVE SMOOTH",
"1218 -133 OFFCURVE",
"1282 -69 OFFCURVE",
"1282 11 CURVE SMOOTH",
"1282 90 OFFCURVE",
"1218 152 OFFCURVE",
"1139 152 CURVE SMOOTH",
"1101 152 OFFCURVE",
"1068 138 OFFCURVE",
"1040 111 CURVE SMOOTH"
);
},
{
closed = 1;
nodes = (
"997 803 LINE SMOOTH",
"997 764 OFFCURVE",
"1004 734 OFFCURVE",
"1013 691 CURVE SMOOTH",
"1018 670 OFFCURVE",
"1021 652 OFFCURVE",
"1024 637 CURVE",
"1077 305 LINE",
"1198 305 LINE",
"1253 637 LINE",
"1256 650 OFFCURVE",
"1260 668 OFFCURVE",
"1266 690 CURVE SMOOTH",
"1277 734 OFFCURVE",
"1282 764 OFFCURVE",
"1282 803 CURVE SMOOTH",
"1282 1102 LINE",
"997 1102 LINE"
);
}
);
width = 2279;
}
);
unicode = 0057;
},
{
glyphname = X;
layers = (
{
layerId = "927F5022-3E08-455B-85C5-6C9BF0A86A02";
name = Regular;
paths = (
{
closed = 1;
nodes = (
"0 986 OFFCURVE",
"200 1321 OFFCURVE",
"516 1502 CURVE SMOOTH",
"673 1593 OFFCURVE",
"844 1638 OFFCURVE",
"1028 1638 CURVE SMOOTH",
"1279 1638 OFFCURVE",
"1518 1537 OFFCURVE",
"1743 1335 CURVE",
"1528 1118 LINE",
"1373 1260 OFFCURVE",
"1207 1331 OFFCURVE",
"1030 1331 CURVE SMOOTH",
"623 1331 OFFCURVE",
"305 1007 OFFCURVE",
"305 598 CURVE SMOOTH",
"305 215 OFFCURVE",
"640 -102 OFFCURVE",
"1028 -102 CURVE SMOOTH",
"1207 -102 OFFCURVE",
"1374 -32 OFFCURVE",
"1528 109 CURVE",
"1745 -111 LINE",
"1532 -310 OFFCURVE",
"1302 -410 OFFCURVE",
"1053 -410 CURVE SMOOTH",
"461 -410 OFFCURVE",
"0 31 OFFCURVE",
"0 618 CURVE SMOOTH"
);
},
{
closed = 1;
nodes = (
"1022 434 LINE",
"1022 795 LINE",
"1868 795 LINE",
"1868 1157 LINE",
"2433 612 LINE",
"1868 72 LINE",
"1868 434 LINE"
);
}
);
width = 2433;
}
);
unicode = 0058;
},
{
glyphname = Z;
layers = (
{
layerId = "927F5022-3E08-455B-85C5-6C9BF0A86A02";
name = Regular;
paths = (
{
closed = 1;
nodes = (
"0 1550 LINE SMOOTH",
"0 1597 OFFCURVE",
"41 1638 OFFCURVE",
"88 1638 CURVE SMOOTH",
"2404 1638 LINE SMOOTH",
"2453 1638 OFFCURVE",
"2492 1597 OFFCURVE",
"2492 1550 CURVE SMOOTH",
"2492 1282 LINE SMOOTH",
"2492 1233 OFFCURVE",
"2453 1194 OFFCURVE",
"2404 1194 CURVE SMOOTH",
"88 1194 LINE SMOOTH",
"41 1194 OFFCURVE",
"0 1233 OFFCURVE",
"0 1282 CURVE SMOOTH"
);
},
{
closed = 1;
nodes = (
"88 926 LINE SMOOTH",
"88 975 OFFCURVE",
"129 1016 OFFCURVE",
"178 1016 CURVE SMOOTH",
"2314 1016 LINE SMOOTH",
"2363 1016 OFFCURVE",
"2404 975 OFFCURVE",
"2404 926 CURVE SMOOTH",
"2404 -322 LINE SMOOTH",
"2404 -369 OFFCURVE",
"2363 -410 OFFCURVE",
"2314 -410 CURVE SMOOTH",
"178 -410 LINE SMOOTH",
"129 -410 OFFCURVE",
"88 -367 OFFCURVE",
"88 -322 CURVE SMOOTH"
);
},
{
closed = 1;
nodes = (
"726 683 OFFCURVE",
"713 652 OFFCURVE",
"713 615 CURVE SMOOTH",
"713 541 OFFCURVE",
"773 481 OFFCURVE",
"846 481 CURVE SMOOTH",
"1647 481 LINE SMOOTH",
"1720 481 OFFCURVE",
"1782 541 OFFCURVE",
"1782 615 CURVE SMOOTH",
"1782 689 OFFCURVE",
"1720 748 OFFCURVE",
"1647 748 CURVE SMOOTH",
"846 748 LINE SMOOTH",
"809 748 OFFCURVE",
"778 735 OFFCURVE",
"752 709 CURVE SMOOTH"
);
}
);
width = 2492;
}
);
unicode = 005A;
},
{
glyphname = a;
layers = (
{
layerId = "927F5022-3E08-455B-85C5-6C9BF0A86A02";
name = Regular;
paths = (
{
closed = 1;
nodes = (
"0 -410 LINE",
"0 1638 LINE",
"1147 1638 LINE",
"1556 1229 LINE",
"1554 -410 LINE"
);
},
{
closed = 1;
nodes = (
"328 -82 LINE",
"1229 -82 LINE",
"1229 1065 LINE",
"983 1065 LINE",
"983 1311 LINE",
"328 1311 LINE"
);
}
);
width = 1556;
}
);
unicode = 0061;
},
{
glyphname = b;
layers = (
{
layerId = "927F5022-3E08-455B-85C5-6C9BF0A86A02";
name = Regular;
paths = (
{
closed = 1;
nodes = (
"0 -102 LINE",
"0 1434 LINE",
"1616 1434 LINE",
"2021 1030 LINE",
"2021 -102 LINE"
);
},
{
closed = 1;
nodes = (
"324 221 LINE",
"1698 221 LINE",
"1698 868 LINE",
"1456 868 LINE",
"1456 1110 LINE",
"324 1110 LINE"
);
}
);
width = 2025;
}
);
unicode = 0062;
},
{
glyphname = c;
layers = (
{
layerId = "927F5022-3E08-455B-85C5-6C9BF0A86A02";
name = Regular;
paths = (
{
closed = 1;
nodes = (
"0 1434 LINE SMOOTH",
"0 1546 OFFCURVE",
"93 1638 OFFCURVE",
"205 1638 CURVE SMOOTH",
"2124 1638 LINE SMOOTH",
"2236 1638 OFFCURVE",
"2329 1546 OFFCURVE",
"2329 1434 CURVE SMOOTH",
"2329 344 LINE SMOOTH",
"2329 232 OFFCURVE",
"2236 139 OFFCURVE",
"2124 139 CURVE SMOOTH",
"1780 139 LINE",
"1780 -410 LINE",
"1233 139 LINE",
"205 139 LINE SMOOTH",
"93 139 OFFCURVE",
"0 232 OFFCURVE",
"0 344 CURVE SMOOTH"
);
}
);
width = 2328;
}
);
unicode = 0063;
},
{
glyphname = d;
layers = (
{
layerId = "927F5022-3E08-455B-85C5-6C9BF0A86A02";
name = Regular;
paths = (
{
closed = 1;
nodes = (
"0 -410 LINE",
"120 -249 OFFCURVE",
"196 -38 OFFCURVE",
"208 66 CURVE SMOOTH",
"217 143 LINE",
"72 307 OFFCURVE",
"0 489 OFFCURVE",
"0 688 CURVE SMOOTH",
"0 1032 OFFCURVE",
"232 1342 OFFCURVE",
"602 1511 CURVE SMOOTH",
"787 1596 OFFCURVE",
"988 1638 OFFCURVE",
"1207 1638 CURVE SMOOTH",
"1643 1638 OFFCURVE",
"2037 1457 OFFCURVE",
"2253 1165 CURVE SMOOTH",
"2361 1019 OFFCURVE",
"2415 860 OFFCURVE",
"2415 688 CURVE SMOOTH",
"2415 344 OFFCURVE",
"2184 32 OFFCURVE",
"1813 -137 CURVE SMOOTH",
"1627 -222 OFFCURVE",
"1425 -264 OFFCURVE",
"1206 -264 CURVE SMOOTH",
"1039 -264 OFFCURVE",
"880 -237 OFFCURVE",
"727 -184 CURVE",
"731 -190 LINE"
);
}
);
width = 2414;
}
);
unicode = 0064;
},
{
glyphname = e;
layers = (
{
layerId = "927F5022-3E08-455B-85C5-6C9BF0A86A02";
name = Regular;
paths = (
{
closed = 1;
nodes = (
"0 -410 LINE",
"120 -249 OFFCURVE",
"196 -38 OFFCURVE",
"208 66 CURVE SMOOTH",
"217 143 LINE",
"72 307 OFFCURVE",
"0 489 OFFCURVE",
"0 688 CURVE SMOOTH",
"0 1032 OFFCURVE",
"232 1342 OFFCURVE",
"602 1511 CURVE SMOOTH",
"787 1596 OFFCURVE",
"988 1638 OFFCURVE",
"1207 1638 CURVE SMOOTH",
"1643 1638 OFFCURVE",
"2037 1457 OFFCURVE",
"2253 1165 CURVE SMOOTH",
"2361 1019 OFFCURVE",
"2415 860 OFFCURVE",
"2415 688 CURVE SMOOTH",
"2415 344 OFFCURVE",
"2184 32 OFFCURVE",
"1813 -137 CURVE SMOOTH",
"1627 -222 OFFCURVE",
"1425 -264 OFFCURVE",
"1206 -264 CURVE SMOOTH",
"1039 -264 OFFCURVE",
"880 -237 OFFCURVE",
"727 -184 CURVE",
"731 -190 LINE"
);
},
{
closed = 1;
nodes = (
"586 607 OFFCURVE",
"652 541 OFFCURVE",
"731 541 CURVE SMOOTH",
"812 541 OFFCURVE",
"879 607 OFFCURVE",
"879 688 CURVE SMOOTH",
"879 767 OFFCURVE",
"814 834 OFFCURVE",
"731 834 CURVE SMOOTH",
"652 834 OFFCURVE",
"586 768 OFFCURVE",
"586 688 CURVE SMOOTH"
);
},
{
closed = 1;
nodes = (
"1098 607 OFFCURVE",
"1164 541 OFFCURVE",
"1243 541 CURVE SMOOTH",
"1324 541 OFFCURVE",
"1391 607 OFFCURVE",
"1391 688 CURVE SMOOTH",
"1391 767 OFFCURVE",
"1326 834 OFFCURVE",
"1243 834 CURVE SMOOTH",
"1164 834 OFFCURVE",
"1098 768 OFFCURVE",
"1098 688 CURVE SMOOTH"
);
},
{
closed = 1;
nodes = (
"1610 607 OFFCURVE",
"1676 541 OFFCURVE",
"1755 541 CURVE SMOOTH",
"1836 541 OFFCURVE",
"1903 607 OFFCURVE",
"1903 688 CURVE SMOOTH",
"1903 767 OFFCURVE",
"1838 834 OFFCURVE",
"1755 834 CURVE SMOOTH",
"1676 834 OFFCURVE",
"1610 768 OFFCURVE",
"1610 688 CURVE SMOOTH"
);
}
);
width = 2414;
}
);
unicode = 0065;
},
{
glyphname = f;
layers = (
{
layerId = "927F5022-3E08-455B-85C5-6C9BF0A86A02";
name = Regular;
paths = (
{
closed = 1;
nodes = (
"0 1458 LINE SMOOTH",
"0 1557 OFFCURVE",
"81 1638 OFFCURVE",
"180 1638 CURVE SMOOTH",
"1868 1638 LINE SMOOTH",
"1967 1638 OFFCURVE",
"2048 1557 OFFCURVE",
"2048 1458 CURVE SMOOTH",
"2048 -229 LINE SMOOTH",
"2048 -328 OFFCURVE",
"1967 -410 OFFCURVE",
"1868 -410 CURVE SMOOTH",
"180 -410 LINE SMOOTH",
"81 -410 OFFCURVE",
"0 -328 OFFCURVE",
"0 -229 CURVE SMOOTH"
);
},
{
closed = 1;
nodes = (
"946 645 LINE",
"1108 645 LINE",
"1108 -174 LINE",
"1413 -174 LINE",
"1413 645 LINE",
"1655 645 LINE",
"1673 881 LINE",
"1413 881 LINE",
"1413 954 LINE",
"1413 1040 LINE",
"1413 1065 LINE SMOOTH",
"1413 1180 OFFCURVE",
"1574 1157 OFFCURVE",
"1665 1130 CURVE",
"1706 1372 LINE",
"1647 1393 OFFCURVE",
"1550 1403 OFFCURVE",
"1413 1403 CURVE SMOOTH",
"1197 1403 OFFCURVE",
"1108 1272 OFFCURVE",
"1108 1040 CURVE SMOOTH",
"1108 1028 LINE",
"1108 954 LINE",
"1108 881 LINE",
"946 881 LINE"
);
}
);
width = 2048;
}
);
unicode = 0066;
},
{
glyphname = g;
layers = (
{
layerId = "927F5022-3E08-455B-85C5-6C9BF0A86A02";
name = Regular;
paths = (
{
closed = 1;
nodes = (
"0 1458 LINE SMOOTH",
"0 1557 OFFCURVE",
"81 1638 OFFCURVE",
"180 1638 CURVE SMOOTH",
"1868 1638 LINE SMOOTH",
"1967 1638 OFFCURVE",
"2048 1557 OFFCURVE",
"2048 1458 CURVE SMOOTH",
"2048 -229 LINE SMOOTH",
"2048 -328 OFFCURVE",
"1967 -410 OFFCURVE",
"1868 -410 CURVE SMOOTH",
"180 -410 LINE SMOOTH",
"81 -410 OFFCURVE",
"0 -328 OFFCURVE",
"0 -229 CURVE SMOOTH"
);
},
{
closed = 1;
nodes = (
"238 -12 OFFCURVE",
"433 -113 OFFCURVE",
"657 -113 CURVE SMOOTH",
"908 -113 OFFCURVE",
"1122 14 OFFCURVE",
"1122 254 CURVE SMOOTH",
"1122 358 OFFCURVE",
"1058 461 OFFCURVE",
"993 516 CURVE SMOOTH",
"928 571 OFFCURVE",
"864 626 OFFCURVE",
"864 653 CURVE SMOOTH",
"864 684 OFFCURVE",
"914 725 OFFCURVE",
"964 765 CURVE SMOOTH",
"1014 805 OFFCURVE",
"1063 897 OFFCURVE",
"1063 1012 CURVE SMOOTH",
"1063 1116 OFFCURVE",
"1033 1189 OFFCURVE",
"973 1231 CURVE",
"976 1231 OFFCURVE",
"1030 1236 OFFCURVE",
"1047 1240 CURVE SMOOTH",
"1063 1244 OFFCURVE",
"1101 1252 OFFCURVE",
"1113 1271 CURVE SMOOTH",
"1119 1280 OFFCURVE",
"1122 1291 OFFCURVE",
"1122 1303 CURVE SMOOTH",
"1122 1318 OFFCURVE",
"1107 1326 OFFCURVE",
"1077 1325 CURVE SMOOTH",
"1073 1325 OFFCURVE",
"1037 1325 OFFCURVE",
"970 1326 CURVE SMOOTH",
"937 1327 OFFCURVE",
"908 1327 OFFCURVE",
"883 1327 CURVE",
"858 1326 OFFCURVE",
"838 1326 OFFCURVE",
"822 1326 CURVE SMOOTH",
"758 1325 OFFCURVE",
"638 1316 OFFCURVE",
"578 1296 CURVE SMOOTH",
"419 1244 OFFCURVE",
"317 1121 OFFCURVE",
"317 961 CURVE SMOOTH",
"317 770 OFFCURVE",
"450 643 OFFCURVE",
"635 643 CURVE SMOOTH",
"637 643 OFFCURVE",
"639 643 OFFCURVE",
"641 643 CURVE SMOOTH",
"653 643 LINE",
"653 610 OFFCURVE",
"655 587 OFFCURVE",
"658 572 CURVE SMOOTH",
"661 557 OFFCURVE",
"664 549 OFFCURVE",
"668 548 CURVE SMOOTH",
"672 547 OFFCURVE",
"677 544 OFFCURVE",
"683 538 CURVE",
"689 531 OFFCURVE",
"695 521 OFFCURVE",
"700 508 CURVE",
"549 508 OFFCURVE",
"419 484 OFFCURVE",
"316 385 CURVE SMOOTH",
"264 336 OFFCURVE",
"238 274 OFFCURVE",
"238 199 CURVE SMOOTH"
);
},
{
closed = 1;
nodes = (
"432 367 OFFCURVE",
"565 432 OFFCURVE",
"705 432 CURVE SMOOTH",
"830 432 OFFCURVE",
"958 365 OFFCURVE",
"958 248 CURVE SMOOTH",
"958 128 OFFCURVE",
"814 47 OFFCURVE",
"686 47 CURVE SMOOTH",
"558 47 OFFCURVE",
"432 115 OFFCURVE",
"432 236 CURVE SMOOTH"
);
},
{
closed = 1;
nodes = (
"522 1157 OFFCURVE",
"564 1235 OFFCURVE",
"653 1235 CURVE SMOOTH",
"770 1235 OFFCURVE",
"846 1079 OFFCURVE",
"846 954 CURVE SMOOTH",
"846 858 OFFCURVE",
"804 780 OFFCURVE",
"715 780 CURVE SMOOTH",
"598 780 OFFCURVE",
"522 936 OFFCURVE",
"522 1061 CURVE SMOOTH"
);
},
{
closed = 1;
nodes = (
"1190 969 LINE",
"1440 969 LINE",
"1440 721 LINE",
"1563 721 LINE",
"1563 969 LINE",
"1810 969 LINE",
"1810 1092 LINE",
"1563 1092 LINE",
"1563 1341 LINE",
"1440 1341 LINE",
"1440 1092 LINE",
"1190 1092 LINE"
);
}
);
width = 2048;
}
);
unicode = 0067;
},
{
glyphname = h;
layers = (
{
layerId = "927F5022-3E08-455B-85C5-6C9BF0A86A02";
name = Regular;
paths = (
{
closed = 1;
nodes = (
"0 614 LINE",
"1026 1640 LINE",
"1026 987 LINE",
"1326 946 OFFCURVE",
"1589 860 OFFCURVE",
"1769 756 CURVE SMOOTH",
"1948 652 OFFCURVE",
"2098 528 OFFCURVE",
"2188 402 CURVE SMOOTH",
"2278 276 OFFCURVE",
"2346 152 OFFCURVE",
"2376 45 CURVE SMOOTH",
"2406 -62 OFFCURVE",
"2425 -146 OFFCURVE",
"2426 -193 CURVE SMOOTH",
"2427 -227 LINE",
"2419 -212 OFFCURVE",
"2406 -191 OFFCURVE",
"2388 -166 CURVE SMOOTH",
"2352 -116 OFFCURVE",
"2186 31 OFFCURVE",
"1995 119 CURVE SMOOTH",
"1803 206 OFFCURVE",
"1493 250 OFFCURVE",
"1257 250 CURVE SMOOTH",
"1182 250 OFFCURVE",
"1105 247 OFFCURVE",
"1026 240 CURVE",
"1026 -408 LINE"
);
}
);
width = 2426;
}
);
unicode = 0068;
},
{
glyphname = i;
layers = (
{
layerId = "927F5022-3E08-455B-85C5-6C9BF0A86A02";
name = Regular;
paths = (
{
closed = 1;
nodes = (
"0 614 LINE",
"1026 1640 LINE",
"1026 1268 LINE",
"373 614 LINE",
"1026 -37 LINE",
"1026 -408 LINE"
);
},
{
closed = 1;
nodes = (
"748 614 LINE",
"1774 1640 LINE",
"1774 987 LINE",
"2074 946 OFFCURVE",
"2337 860 OFFCURVE",
"2516 756 CURVE SMOOTH",
"2695 652 OFFCURVE",
"2845 528 OFFCURVE",
"2935 402 CURVE SMOOTH",
"3025 276 OFFCURVE",
"3094 152 OFFCURVE",
"3124 45 CURVE SMOOTH",
"3154 -62 OFFCURVE",
"3172 -146 OFFCURVE",
"3173 -193 CURVE SMOOTH",
"3174 -227 LINE",
"3166 -212 OFFCURVE",
"3153 -191 OFFCURVE",
"3136 -166 CURVE SMOOTH",
"3100 -116 OFFCURVE",
"2934 31 OFFCURVE",
"2743 119 CURVE SMOOTH",
"2551 206 OFFCURVE",
"2241 250 OFFCURVE",
"2005 250 CURVE SMOOTH",
"1930 250 OFFCURVE",
"1853 247 OFFCURVE",
"1774 240 CURVE",
"1774 -408 LINE"
);
}
);
width = 3174;
}
);
unicode = 0069;
},
{
glyphname = j;
layers = (
{
layerId = "927F5022-3E08-455B-85C5-6C9BF0A86A02";
name = Regular;
paths = (
{
closed = 1;
nodes = (
"0 240 LINE",
"0 987 LINE",
"1401 987 LINE",
"1401 1640 LINE",
"2427 614 LINE",
"1401 -408 LINE",
"1401 240 LINE"
);
}
);
width = 2426;
}
);
unicode = 006A;
},
{
glyphname = k;
layers = (
{
layerId = "927F5022-3E08-455B-85C5-6C9BF0A86A02";
name = Regular;
paths = (
{
closed = 1;
nodes = (
"0 1458 LINE SMOOTH",
"0 1557 OFFCURVE",
"81 1638 OFFCURVE",
"180 1638 CURVE SMOOTH",
"1868 1638 LINE SMOOTH",
"1967 1638 OFFCURVE",
"2048 1557 OFFCURVE",
"2048 1458 CURVE SMOOTH",
"2048 -229 LINE SMOOTH",
"2048 -328 OFFCURVE",
"1967 -410 OFFCURVE",
"1868 -410 CURVE SMOOTH",
"180 -410 LINE SMOOTH",
"81 -410 OFFCURVE",
"0 -328 OFFCURVE",
"0 -229 CURVE SMOOTH"
);
},
{
closed = 1;
nodes = (
"559 713 LINE",
"745 707 LINE",
"745 86 LINE SMOOTH",
"745 -21 OFFCURVE",
"787 -92 OFFCURVE",
"859 -123 CURVE SMOOTH",
"931 -155 OFFCURVE",
"988 -162 OFFCURVE",
"1075 -162 CURVE SMOOTH",
"1167 -162 LINE SMOOTH",
"1235 -162 OFFCURVE",
"1290 -159 OFFCURVE",
"1333 -154 CURVE SMOOTH",
"1418 -144 OFFCURVE",
"1434 -136 OFFCURVE",
"1475 -115 CURVE",
"1475 147 LINE",
"1402 100 OFFCURVE",
"1332 76 OFFCURVE",
"1263 76 CURVE SMOOTH",
"1262 76 OFFCURVE",
"1261 76 OFFCURVE",
"1260 76 CURVE SMOOTH",
"1187 76 OFFCURVE",
"1114 121 OFFCURVE",
"1114 154 CURVE SMOOTH",
"1114 713 LINE",
"1489 713 LINE",
"1487 956 LINE",
"1110 956 LINE",
"1114 1327 LINE",
"885 1327 LINE",
"881 1234 OFFCURVE",
"856 1154 OFFCURVE",
"809 1085 CURVE",
"805 1078 OFFCURVE",
"799 1068 OFFCURVE",
"791 1053 CURVE SMOOTH",
"774 1023 OFFCURVE",
"760 1000 OFFCURVE",
"745 989 CURVE",
"719 968 OFFCURVE",
"667 958 OFFCURVE",
"590 958 CURVE SMOOTH",
"559 958 LINE"
);
}
);
width = 2048;
}
);
unicode = 006B;
},
{
glyphname = l;
layers = (
{
layerId = "927F5022-3E08-455B-85C5-6C9BF0A86A02";
name = Regular;
paths = (
{
closed = 1;
nodes = (
"0 1458 LINE SMOOTH",
"0 1557 OFFCURVE",
"81 1638 OFFCURVE",
"180 1638 CURVE SMOOTH",
"1868 1638 LINE SMOOTH",
"1967 1638 OFFCURVE",
"2048 1557 OFFCURVE",
"2048 1458 CURVE SMOOTH",
"2048 -229 LINE SMOOTH",
"2048 -328 OFFCURVE",
"1967 -410 OFFCURVE",
"1868 -410 CURVE SMOOTH",
"180 -410 LINE SMOOTH",
"81 -410 OFFCURVE",
"0 -328 OFFCURVE",
"0 -229 CURVE SMOOTH"
);
},
{
closed = 1;
nodes = (
"416 1166 OFFCURVE",
"403 1134 OFFCURVE",
"403 1096 CURVE SMOOTH",
"403 1019 OFFCURVE",
"459 963 OFFCURVE",
"539 963 CURVE SMOOTH",
"628 963 OFFCURVE",
"681 1019 OFFCURVE",
"680 1090 CURVE",
"680 1092 OFFCURVE",
"680 1094 OFFCURVE",
"680 1096 CURVE SMOOTH",
"680 1172 OFFCURVE",
"625 1229 OFFCURVE",
"543 1229 CURVE SMOOTH",
"502 1229 OFFCURVE",
"468 1216 OFFCURVE",
"442 1191 CURVE SMOOTH"
);
},
{
closed = 1;
nodes = (
"410 0 LINE",
"672 0 LINE",
"672 858 LINE",
"410 858 LINE"
);
},
{
closed = 1;
nodes = (
"823 858 LINE",
"827 703 OFFCURVE",
"829 611 OFFCURVE",
"829 584 CURVE SMOOTH",
"829 0 LINE",
"1092 0 LINE",
"1092 494 LINE SMOOTH",
"1092 523 OFFCURVE",
"1095 545 OFFCURVE",
"1100 561 CURVE",
"1155 694 OFFCURVE",
"1368 724 OFFCURVE",
"1368 475 CURVE SMOOTH",
"1368 0 LINE",
"1632 0 LINE",
"1632 506 LINE SMOOTH",
"1632 749 OFFCURVE",
"1509 877 OFFCURVE",
"1329 877 CURVE SMOOTH",
"1201 877 OFFCURVE",
"1111 809 OFFCURVE",
"1067 737 CURVE",
"1063 737 LINE",
"1051 858 LINE"
);
}
);
width = 2048;
}
);
unicode = 006C;
},
{
glyphname = m;
layers = (
{
layerId = "927F5022-3E08-455B-85C5-6C9BF0A86A02";
name = Regular;
paths = (
{
closed = 1;
nodes = (
"0 1458 LINE SMOOTH",
"0 1557 OFFCURVE",
"81 1638 OFFCURVE",
"180 1638 CURVE SMOOTH",
"1868 1638 LINE SMOOTH",
"1967 1638 OFFCURVE",
"2048 1557 OFFCURVE",
"2048 1458 CURVE SMOOTH",
"2048 -229 LINE SMOOTH",
"2048 -328 OFFCURVE",
"1967 -410 OFFCURVE",
"1868 -410 CURVE SMOOTH",
"180 -410 LINE SMOOTH",
"81 -410 OFFCURVE",
"0 -328 OFFCURVE",
"0 -229 CURVE SMOOTH"
);
},
{
closed = 1;
nodes = (
"164 920 LINE",
"171 913 OFFCURVE",
"178 903 OFFCURVE",
"186 890 CURVE",
"201 863 OFFCURVE",
"215 852 OFFCURVE",
"248 852 CURVE SMOOTH",
"263 852 OFFCURVE",
"286 857 OFFCURVE",
"316 867 CURVE SMOOTH",
"345 876 OFFCURVE",
"368 881 OFFCURVE",
"385 881 CURVE SMOOTH",
"420 881 OFFCURVE",
"450 854 OFFCURVE",
"473 799 CURVE SMOOTH",
"480 781 OFFCURVE",
"488 755 OFFCURVE",
"499 722 CURVE SMOOTH",
"509 689 OFFCURVE",
"516 666 OFFCURVE",
"520 655 CURVE SMOOTH",
"539 600 OFFCURVE",
"565 512 OFFCURVE",
"596 389 CURVE",
"597 384 OFFCURVE",
"602 366 OFFCURVE",
"610 336 CURVE SMOOTH",
"617 306 OFFCURVE",
"623 284 OFFCURVE",
"626 271 CURVE SMOOTH",
"633 243 OFFCURVE",
"655 167 OFFCURVE",
"671 132 CURVE SMOOTH",
"686 97 OFFCURVE",
"711 36 OFFCURVE",
"736 8 CURVE",
"760 -21 OFFCURVE",
"792 -57 OFFCURVE",
"829 -71 CURVE SMOOTH",
"847 -78 OFFCURVE",
"866 -82 OFFCURVE",
"887 -82 CURVE SMOOTH",
"1070 -82 OFFCURVE",
"1302 122 OFFCURVE",
"1467 371 CURVE SMOOTH",
"1632 619 OFFCURVE",
"1767 892 OFFCURVE",
"1796 1051 CURVE SMOOTH",
"1800 1075 OFFCURVE",
"1802 1098 OFFCURVE",
"1802 1120 CURVE SMOOTH",
"1802 1373 OFFCURVE",
"1465 1347 OFFCURVE",
"1288 1203 CURVE SMOOTH",
"1199 1130 OFFCURVE",
"1139 1044 OFFCURVE",
"1106 944 CURVE",
"1123 947 OFFCURVE",
"1139 948 OFFCURVE",
"1154 948 CURVE SMOOTH",
"1164 948 OFFCURVE",
"1174 947 OFFCURVE",
"1184 946 CURVE SMOOTH",
"1233 941 OFFCURVE",
"1273 932 OFFCURVE",
"1295 892 CURVE SMOOTH",
"1306 872 OFFCURVE",
"1311 846 OFFCURVE",
"1311 813 CURVE SMOOTH",
"1311 696 OFFCURVE",
"1180 414 OFFCURVE",
"1079 414 CURVE SMOOTH",
"1053 414 OFFCURVE",
"1029 427 OFFCURVE",
"1006 453 CURVE",
"941 521 OFFCURVE",
"903 744 OFFCURVE",
"887 922 CURVE SMOOTH",
"870 1100 OFFCURVE",
"803 1268 OFFCURVE",
"680 1268 CURVE SMOOTH",
"579 1268 OFFCURVE",
"470 1198 OFFCURVE",
"302 1050 CURVE SMOOTH",
"218 975 OFFCURVE",
"172 935 OFFCURVE",
"164 930 CURVE"
);
}
);
width = 2048;
}
);
unicode = 006D;
},
{
glyphname = n;
layers = (
{
layerId = "927F5022-3E08-455B-85C5-6C9BF0A86A02";
name = Regular;
paths = (
{
closed = 1;
nodes = (
"182 279 LINE",
"182 715 LINE",
"489 496 LINE"
);
},
{
closed = 1;
nodes = (
"678 29 LINE",
"2048 29 LINE",
"2048 -408 LINE",
"678 -408 LINE"
);
},
{
closed = 1;
nodes = (
"678 279 LINE",
"678 715 LINE",
"2048 715 LINE",
"2048 279 LINE"
);
},
{
closed = 1;
nodes = (
"678 963 LINE",
"678 1399 LINE",
"2048 1399 LINE",
"2048 963 LINE"
);
}
);
width = 2048;
}
);
unicode = 006E;
},
{
glyphname = o;
layers = (
{
layerId = "927F5022-3E08-455B-85C5-6C9BF0A86A02";
name = Regular;
paths = (
{
closed = 1;
nodes = (
"182 496 LINE",
"489 715 LINE",
"489 279 LINE"
);
},
{
closed = 1;
nodes = (
"678 29 LINE",
"2048 29 LINE",
"2048 -408 LINE",
"678 -408 LINE"
);
},
{
closed = 1;
nodes = (
"678 279 LINE",
"678 715 LINE",
"2048 715 LINE",
"2048 279 LINE"
);
},
{
closed = 1;
nodes = (
"678 963 LINE",
"678 1399 LINE",
"2048 1399 LINE",
"2048 963 LINE"
);
}
);
width = 2048;
}
);
unicode = 006F;
},
{
glyphname = p;
layers = (
{
layerId = "927F5022-3E08-455B-85C5-6C9BF0A86A02";
name = Regular;
paths = (
{
closed = 1;
nodes = (
"178 -102 OFFCURVE",
"249 -33 OFFCURVE",
"334 -33 CURVE SMOOTH",
"418 -33 OFFCURVE",
"489 -102 OFFCURVE",
"489 -190 CURVE SMOOTH",
"489 -274 OFFCURVE",
"418 -346 OFFCURVE",
"334 -346 CURVE SMOOTH",
"249 -346 OFFCURVE",
"178 -275 OFFCURVE",
"178 -190 CURVE SMOOTH"
);
},
{
closed = 1;
nodes = (
"193 415 OFFCURVE",
"178 452 OFFCURVE",
"178 496 CURVE SMOOTH",
"178 583 OFFCURVE",
"249 651 OFFCURVE",
"334 651 CURVE SMOOTH",
"418 651 OFFCURVE",
"489 583 OFFCURVE",
"489 496 CURVE SMOOTH",
"489 408 OFFCURVE",
"418 340 OFFCURVE",
"334 340 CURVE SMOOTH",
"291 340 OFFCURVE",
"255 355 OFFCURVE",
"224 385 CURVE SMOOTH"
);
},
{
closed = 1;
nodes = (
"193 1103 OFFCURVE",
"178 1139 OFFCURVE",
"178 1182 CURVE SMOOTH",
"178 1266 OFFCURVE",
"249 1337 OFFCURVE",
"334 1337 CURVE SMOOTH",
"418 1337 OFFCURVE",
"489 1266 OFFCURVE",
"489 1182 CURVE SMOOTH",
"489 1097 OFFCURVE",
"418 1026 OFFCURVE",
"334 1026 CURVE SMOOTH",
"291 1026 OFFCURVE",
"255 1041 OFFCURVE",
"224 1072 CURVE SMOOTH"
);
},
{
closed = 1;
nodes = (
"678 29 LINE",
"2048 29 LINE",
"2048 -408 LINE",
"678 -408 LINE"
);
},
{
closed = 1;
nodes = (
"678 279 LINE",
"678 715 LINE",
"2048 715 LINE",
"2048 279 LINE"
);
},
{
closed = 1;
nodes = (
"678 963 LINE",
"678 1399 LINE",
"2048 1399 LINE",
"2048 963 LINE"
);
}
);
width = 2048;
}
);
unicode = 0070;
},
{
glyphname = q;
layers = (
{
layerId = "927F5022-3E08-455B-85C5-6C9BF0A86A02";
name = Regular;
paths = (
{
closed = 1;
nodes = (
"186 -248 LINE",
"264 -248 LINE",
"264 -299 OFFCURVE",
"286 -324 OFFCURVE",
"330 -324 CURVE SMOOTH",
"369 -324 OFFCURVE",
"395 -301 OFFCURVE",
"395 -262 CURVE SMOOTH",
"395 -223 OFFCURVE",
"364 -202 OFFCURVE",
"324 -205 CURVE",
"305 -205 LINE",
"305 -150 LINE",
"309 -150 OFFCURVE",
"313 -150 OFFCURVE",
"316 -150 CURVE SMOOTH",
"363 -150 OFFCURVE",
"387 -133 OFFCURVE",
"387 -100 CURVE SMOOTH",
"387 -69 OFFCURVE",
"364 -51 OFFCURVE",
"332 -51 CURVE SMOOTH",
"293 -51 OFFCURVE",
"273 -74 OFFCURVE",
"272 -119 CURVE",
"197 -119 LINE",
"200 -38 OFFCURVE",
"249 12 OFFCURVE",
"332 12 CURVE SMOOTH",
"403 12 OFFCURVE",
"463 -26 OFFCURVE",
"463 -94 CURVE SMOOTH",
"463 -130 OFFCURVE",
"440 -164 OFFCURVE",
"408 -172 CURVE",
"454 -183 OFFCURVE",
"477 -213 OFFCURVE",
"477 -262 CURVE SMOOTH",
"477 -341 OFFCURVE",
"411 -389 OFFCURVE",
"332 -389 CURVE SMOOTH",
"244 -389 OFFCURVE",
"186 -338 OFFCURVE",
"186 -254 CURVE SMOOTH"
);
},
{
closed = 1;
nodes = (
"186 291 LINE",
"189 367 OFFCURVE",
"241 426 OFFCURVE",
"292 452 CURVE SMOOTH",
"343 478 OFFCURVE",
"393 517 OFFCURVE",
"393 561 CURVE SMOOTH",
"393 594 OFFCURVE",
"371 616 OFFCURVE",
"336 616 CURVE SMOOTH",
"297 616 OFFCURVE",
"275 588 OFFCURVE",
"272 532 CURVE",
"197 532 LINE",
"197 625 OFFCURVE",
"247 686 OFFCURVE",
"340 686 CURVE SMOOTH",
"416 686 OFFCURVE",
"473 640 OFFCURVE",
"473 565 CURVE SMOOTH",
"473 497 OFFCURVE",
"422 459 OFFCURVE",
"358 419 CURVE SMOOTH",
"325 399 OFFCURVE",
"302 379 OFFCURVE",
"289 358 CURVE",
"475 358 LINE",
"475 291 LINE"
);
},
{
closed = 1;
nodes = (
"221 1219 LINE",
"221 1278 LINE",
"288 1278 OFFCURVE",
"326 1304 OFFCURVE",
"336 1356 CURVE",
"401 1356 LINE",
"401 963 LINE",
"315 963 LINE",
"315 1219 LINE"
);
},
{
closed = 1;
nodes = (
"678 29 LINE",
"2048 29 LINE",
"2048 -408 LINE",
"678 -408 LINE"
);
},
{
closed = 1;
nodes = (
"678 279 LINE",
"678 715 LINE",
"2048 715 LINE",
"2048 279 LINE"
);
},
{
closed = 1;
nodes = (
"678 963 LINE",
"678 1399 LINE",
"2048 1399 LINE",
"2048 963 LINE"
);
}
);
width = 2048;
}
);
unicode = 0071;
},
{
glyphname = r;
layers = (
{
layerId = "927F5022-3E08-455B-85C5-6C9BF0A86A02";
name = Regular;
paths = (
{
closed = 1;
nodes = (
"0 1458 LINE SMOOTH",
"0 1557 OFFCURVE",
"81 1638 OFFCURVE",
"180 1638 CURVE SMOOTH",
"1868 1638 LINE SMOOTH",
"1967 1638 OFFCURVE",
"2048 1557 OFFCURVE",
"2048 1458 CURVE SMOOTH",
"2048 -229 LINE SMOOTH",
"2048 -328 OFFCURVE",
"1967 -410 OFFCURVE",
"1868 -410 CURVE SMOOTH",
"180 -410 LINE SMOOTH",
"81 -410 OFFCURVE",
"0 -328 OFFCURVE",
"0 -229 CURVE SMOOTH"
);
},
{
closed = 1;
nodes = (
"301 -27 OFFCURVE",
"384 -109 OFFCURVE",
"481 -109 CURVE SMOOTH",
"582 -109 OFFCURVE",
"664 -27 OFFCURVE",
"664 72 CURVE SMOOTH",
"664 173 OFFCURVE",
"582 254 OFFCURVE",
"481 254 CURVE SMOOTH",
"382 254 OFFCURVE",
"301 172 OFFCURVE",
"301 72 CURVE SMOOTH"
);
},
{
closed = 1;
nodes = (
"301 569 LINE",
"487 569 OFFCURVE",
"646 503 OFFCURVE",
"778 371 CURVE SMOOTH",
"911 241 OFFCURVE",
"977 81 OFFCURVE",
"977 -109 CURVE",
"1255 -109 LINE",
"1255 235 OFFCURVE",
"1072 547 OFFCURVE",
"779 718 CURVE SMOOTH",
"632 803 OFFCURVE",
"473 846 OFFCURVE",
"301 846 CURVE"
);
},
{
closed = 1;
nodes = (
"301 1061 LINE",
"721 1061 OFFCURVE",
"1103 838 OFFCURVE",
"1312 478 CURVE SMOOTH",
"1416 298 OFFCURVE",
"1468 102 OFFCURVE",
"1468 -109 CURVE",
"1747 -109 LINE",
"1747 282 OFFCURVE",
"1583 657 OFFCURVE",
"1324 915 CURVE SMOOTH",
"1065 1173 OFFCURVE",
"692 1337 OFFCURVE",
"301 1337 CURVE"
);
}
);
width = 2048;
}
);
unicode = 0072;
},
{
glyphname = s;
layers = (
{
layerId = "927F5022-3E08-455B-85C5-6C9BF0A86A02";
name = Regular;
paths = (
{
closed = 1;
nodes = (
"0 1387 OFFCURVE",
"256 1638 OFFCURVE",
"567 1638 CURVE SMOOTH",
"678 1638 OFFCURVE",
"778 1609 OFFCURVE",
"868 1552 CURVE",
"920 1561 OFFCURVE",
"975 1566 OFFCURVE",
"1034 1567 CURVE SMOOTH",
"1386 1567 OFFCURVE",
"1703 1385 OFFCURVE",
"1879 1090 CURVE SMOOTH",
"1967 942 OFFCURVE",
"2011 780 OFFCURVE",
"2011 604 CURVE SMOOTH",
"2011 527 OFFCURVE",
"2004 458 OFFCURVE",
"1989 397 CURVE",
"2028 318 OFFCURVE",
"2048 236 OFFCURVE",
"2048 150 CURVE SMOOTH",
"2048 -158 OFFCURVE",
"1792 -410 OFFCURVE",
"1481 -410 CURVE SMOOTH",
"1387 -410 OFFCURVE",
"1298 -388 OFFCURVE",
"1214 -344 CURVE",
"1151 -355 OFFCURVE",
"1091 -360 OFFCURVE",
"1034 -360 CURVE SMOOTH",
"499 -360 OFFCURVE",
"57 69 OFFCURVE",
"57 604 CURVE SMOOTH",
"57 661 OFFCURVE",
"64 726 OFFCURVE",
"78 797 CURVE",
"26 884 OFFCURVE",
"0 978 OFFCURVE",
"0 1079 CURVE SMOOTH"
);
},
{
closed = 1;
nodes = (
"459 273 OFFCURVE",
"480 215 OFFCURVE",
"522 156 CURVE SMOOTH",
"620 14 OFFCURVE",
"790 -57 OFFCURVE",
"1032 -57 CURVE SMOOTH",
"1168 -57 OFFCURVE",
"1298 -27 OFFCURVE",
"1413 34 CURVE SMOOTH",
"1528 95 OFFCURVE",
"1604 210 OFFCURVE",
"1604 358 CURVE SMOOTH",
"1604 494 OFFCURVE",
"1537 596 OFFCURVE",
"1441 651 CURVE SMOOTH",
"1344 706 OFFCURVE",
"1221 744 OFFCURVE",
"1104 767 CURVE SMOOTH",
"987 790 OFFCURVE",
"885 812 OFFCURVE",
"825 856 CURVE SMOOTH",
"795 878 OFFCURVE",
"780 905 OFFCURVE",
"780 936 CURVE SMOOTH",
"780 1029 OFFCURVE",
"903 1069 OFFCURVE",
"1010 1069 CURVE SMOOTH",
"1119 1069 OFFCURVE",
"1192 1030 OFFCURVE",
"1225 982 CURVE SMOOTH",
"1241 958 OFFCURVE",
"1256 934 OFFCURVE",
"1269 910 CURVE SMOOTH",
"1295 862 OFFCURVE",
"1335 823 OFFCURVE",
"1403 823 CURVE SMOOTH",
"1479 823 OFFCURVE",
"1544 883 OFFCURVE",
"1544 957 CURVE SMOOTH",
"1544 994 OFFCURVE",
"1534 1030 OFFCURVE",
"1513 1067 CURVE SMOOTH",
"1432 1218 OFFCURVE",
"1231 1282 OFFCURVE",
"1028 1282 CURVE SMOOTH",
"903 1282 OFFCURVE",
"784 1258 OFFCURVE",
"672 1205 CURVE SMOOTH",
"560 1152 OFFCURVE",
"485 1048 OFFCURVE",
"485 911 CURVE SMOOTH",
"485 731 OFFCURVE",
"611 621 OFFCURVE",
"771 577 CURVE SMOOTH",
"851 554 OFFCURVE",
"931 535 OFFCURVE",
"1010 519 CURVE SMOOTH",
"1168 486 OFFCURVE",
"1294 431 OFFCURVE",
"1294 330 CURVE SMOOTH",
"1294 215 OFFCURVE",
"1155 160 OFFCURVE",
"1024 160 CURVE SMOOTH",
"901 160 OFFCURVE",
"822 207 OFFCURVE",
"788 264 CURVE SMOOTH",
"771 293 OFFCURVE",
"755 322 OFFCURVE",
"742 351 CURVE SMOOTH",
"714 410 OFFCURVE",
"673 457 OFFCURVE",
"602 457 CURVE SMOOTH",
"526 457 OFFCURVE",
"459 403 OFFCURVE",
"459 330 CURVE SMOOTH"
);
}
);
width = 2048;
}
);
unicode = 0073;
},
{
glyphname = t;
layers = (
{
layerId = "927F5022-3E08-455B-85C5-6C9BF0A86A02";
name = Regular;
paths = (
{
closed = 1;
nodes = (
"205 54 OFFCURVE",
"549 45 OFFCURVE",
"762 272 CURVE",
"754 271 OFFCURVE",
"746 270 OFFCURVE",
"737 270 CURVE SMOOTH",
"688 270 OFFCURVE",
"614 297 OFFCURVE",
"614 358 CURVE SMOOTH",
"614 395 OFFCURVE",
"642 426 OFFCURVE",
"698 451 CURVE",
"685 450 OFFCURVE",
"673 449 OFFCURVE",
"660 449 CURVE SMOOTH",
"580 450 OFFCURVE",
"492 482 OFFCURVE",
"444 578 CURVE",
"474 612 OFFCURVE",
"521 631 OFFCURVE",
"586 635 CURVE",
"452 668 OFFCURVE",
"375 737 OFFCURVE",
"356 844 CURVE",
"393 855 OFFCURVE",
"429 860 OFFCURVE",
"465 860 CURVE SMOOTH",
"481 860 LINE",
"380 916 OFFCURVE",
"305 1003 OFFCURVE",
"305 1102 CURVE SMOOTH",
"305 1104 OFFCURVE",
"305 1106 OFFCURVE",
"305 1108 CURVE",
"307 1124 LINE",
"518 1043 OFFCURVE",
"694 964 OFFCURVE",
"834 887 CURVE SMOOTH",
"875 864 OFFCURVE",
"926 821 OFFCURVE",
"989 758 CURVE",
"1077 995 OFFCURVE",
"1163 1172 OFFCURVE",
"1311 1268 CURVE",
"1310 1246 OFFCURVE",
"1299 1225 OFFCURVE",
"1280 1204 CURVE",
"1325 1248 OFFCURVE",
"1379 1274 OFFCURVE",
"1440 1282 CURVE",
"1436 1251 OFFCURVE",
"1400 1223 OFFCURVE",
"1331 1198 CURVE",
"1340 1201 OFFCURVE",
"1358 1207 OFFCURVE",
"1383 1218 CURVE",
"1434 1238 OFFCURVE",
"1474 1249 OFFCURVE",
"1503 1249 CURVE SMOOTH",
"1524 1249 OFFCURVE",
"1534 1242 OFFCURVE",
"1534 1227 CURVE SMOOTH",
"1534 1216 OFFCURVE",
"1523 1206 OFFCURVE",
"1500 1195 CURVE SMOOTH",
"1477 1184 OFFCURVE",
"1448 1173 OFFCURVE",
"1413 1163 CURVE SMOOTH",
"1378 1152 OFFCURVE",
"1359 1146 OFFCURVE",
"1356 1145 CURVE",
"1369 1146 OFFCURVE",
"1381 1147 OFFCURVE",
"1394 1147 CURVE SMOOTH",
"1583 1148 OFFCURVE",
"1759 975 OFFCURVE",
"1802 748 CURVE",
"1827 740 OFFCURVE",
"1851 736 OFFCURVE",
"1876 735 CURVE",
"1944 735 OFFCURVE",
"2001 748 OFFCURVE",
"2046 774 CURVE",
"2010 693 OFFCURVE",
"1918 644 OFFCURVE",
"1821 639 CURVE",
"1868 618 OFFCURVE",
"1924 608 OFFCURVE",
"1991 608 CURVE SMOOTH",
"2012 608 OFFCURVE",
"2033 610 OFFCURVE",
"2054 614 CURVE",
"1997 551 OFFCURVE",
"1919 520 OFFCURVE",
"1820 520 CURVE SMOOTH",
"1816 520 OFFCURVE",
"1812 520 OFFCURVE",
"1808 520 CURVE",
"1707 105 OFFCURVE",
"1269 -168 OFFCURVE",
"821 -168 CURVE SMOOTH",
"490 -168 OFFCURVE",
"193 -18 OFFCURVE",
"0 250 CURVE"
);
}
);
width = 2054;
}
);
unicode = 0074;
},
{
glyphname = u;
layers = (
{
layerId = "927F5022-3E08-455B-85C5-6C9BF0A86A02";
name = Regular;
paths = (
{
closed = 1;
nodes = (
"0 274 LINE",
"455 274 LINE",
"455 -408 LINE",
"0 -408 LINE"
);
},
{
closed = 1;
nodes = (
"758 -408 LINE",
"758 958 LINE",
"1214 958 LINE",
"1214 -408 LINE"
);
},
{
closed = 1;
nodes = (
"1518 -408 LINE",
"1518 1640 LINE",
"1972 1640 LINE",
"1972 -408 LINE"
);
}
);
width = 1972;
}
);
unicode = 0075;
},
{
glyphname = v;
layers = (
{
layerId = "927F5022-3E08-455B-85C5-6C9BF0A86A02";
name = Regular;
paths = (
{
closed = 1;
nodes = (
"0 1458 LINE SMOOTH",
"0 1557 OFFCURVE",
"81 1638 OFFCURVE",
"180 1638 CURVE SMOOTH",
"1868 1638 LINE SMOOTH",
"1967 1638 OFFCURVE",
"2048 1557 OFFCURVE",
"2048 1458 CURVE SMOOTH",
"2048 -229 LINE SMOOTH",
"2048 -328 OFFCURVE",
"1967 -410 OFFCURVE",
"1868 -410 CURVE SMOOTH",
"180 -410 LINE SMOOTH",
"81 -410 OFFCURVE",
"0 -328 OFFCURVE",
"0 -229 CURVE SMOOTH"
);
},
{
closed = 1;
nodes = (
"573 0 LINE",
"1065 0 LINE SMOOTH",
"1193 0 OFFCURVE",
"1305 25 OFFCURVE",
"1401 80 CURVE SMOOTH",
"1497 135 OFFCURVE",
"1556 241 OFFCURVE",
"1556 377 CURVE SMOOTH",
"1556 536 OFFCURVE",
"1465 641 OFFCURVE",
"1305 674 CURVE",
"1305 680 LINE",
"1412 724 OFFCURVE",
"1475 827 OFFCURVE",
"1475 944 CURVE SMOOTH",
"1475 1069 OFFCURVE",
"1420 1150 OFFCURVE",
"1321 1186 CURVE SMOOTH",
"1222 1221 OFFCURVE",
"1145 1229 OFFCURVE",
"1022 1229 CURVE SMOOTH",
"573 1229 LINE"
);
},
{
closed = 1;
nodes = (
"881 225 LINE",
"881 532 LINE",
"985 532 LINE",
"1038 532 LINE SMOOTH",
"1051 532 OFFCURVE",
"1118 530 OFFCURVE",
"1135 523 CURVE SMOOTH",
"1151 516 OFFCURVE",
"1197 501 OFFCURVE",
"1211 481 CURVE SMOOTH",
"1225 460 OFFCURVE",
"1239 427 OFFCURVE",
"1239 383 CURVE SMOOTH",
"1239 350 OFFCURVE",
"1230 320 OFFCURVE",
"1219 300 CURVE",
"1207 280 OFFCURVE",
"1180 263 OFFCURVE",
"1164 252 CURVE SMOOTH",
"1147 241 OFFCURVE",
"1107 234 OFFCURVE",
"1089 230 CURVE SMOOTH",
"1071 226 OFFCURVE",
"1020 225 OFFCURVE",
"1004 225 CURVE SMOOTH",
"962 225 LINE",
"926 225 LINE"
);
},
{
closed = 1;
nodes = (
"881 743 LINE",
"881 1004 LINE",
"961 1004 LINE SMOOTH",
"1010 1004 OFFCURVE",
"1025 1003 OFFCURVE",
"1069 995 CURVE SMOOTH",
"1113 987 OFFCURVE",
"1131 973 OFFCURVE",
"1148 941 CURVE SMOOTH",
"1157 924 OFFCURVE",
"1161 904 OFFCURVE",
"1161 881 CURVE SMOOTH",
"1161 826 OFFCURVE",
"1139 791 OFFCURVE",
"1116 772 CURVE SMOOTH",
"1092 753 OFFCURVE",
"1033 745 OFFCURVE",
"1006 744 CURVE SMOOTH",
"992 743 OFFCURVE",
"971 743 OFFCURVE",
"942 743 CURVE SMOOTH"
);
}
);
width = 2048;
}
);
unicode = 0076;
},
{
glyphname = w;
layers = (
{
layerId = "927F5022-3E08-455B-85C5-6C9BF0A86A02";
name = Regular;
paths = (
{
closed = 1;
nodes = (
"0 795 LINE SMOOTH",
"0 840 OFFCURVE",
"21 862 OFFCURVE",
"64 862 CURVE SMOOTH",
"65 862 OFFCURVE",
"65 862 OFFCURVE",
"66 862 CURVE SMOOTH",
"862 862 LINE",
"862 1260 LINE SMOOTH",
"862 1399 OFFCURVE",
"748 1458 OFFCURVE",
"600 1458 CURVE SMOOTH",
"455 1458 OFFCURVE",
"332 1389 OFFCURVE",
"332 1249 CURVE SMOOTH",
"332 993 LINE",
"133 993 LINE",
"133 1255 LINE",
"135 1255 LINE",
"159 1492 OFFCURVE",
"360 1653 OFFCURVE",
"600 1653 CURVE SMOOTH",
"840 1653 OFFCURVE",
"1032 1455 OFFCURVE",
"1055 1214 CURVE",
"1057 1214 LINE",
"1061 862 LINE",
"1066 862 OFFCURVE",
"1076 862 OFFCURVE",
"1091 863 CURVE SMOOTH",
"1119 864 OFFCURVE",
"1124 863 OFFCURVE",
"1148 859 CURVE SMOOTH",
"1171 855 OFFCURVE",
"1178 847 OFFCURVE",
"1186 829 CURVE SMOOTH",
"1190 820 OFFCURVE",
"1192 808 OFFCURVE",
"1192 795 CURVE SMOOTH",
"1192 66 LINE SMOOTH",
"1192 22 OFFCURVE",
"1170 0 OFFCURVE",
"1126 0 CURVE SMOOTH",
"66 0 LINE SMOOTH",
"22 0 OFFCURVE",
"0 22 OFFCURVE",
"0 66 CURVE SMOOTH"
);
}
);
width = 1191;
}
);
unicode = 0077;
},
{
glyphname = x;
layers = (
{
layerId = "927F5022-3E08-455B-85C5-6C9BF0A86A02";
name = Regular;
paths = (
{
closed = 1;
nodes = (
"0 795 LINE SMOOTH",
"0 822 OFFCURVE",
"9 840 OFFCURVE",
"21 849 CURVE",
"32 858 OFFCURVE",
"58 862 OFFCURVE",
"72 863 CURVE",
"79 864 OFFCURVE",
"89 864 OFFCURVE",
"104 863 CURVE SMOOTH",
"118 862 OFFCURVE",
"128 862 OFFCURVE",
"133 862 CURVE",
"133 1122 LINE",
"135 1122 LINE",
"159 1359 OFFCURVE",
"360 1520 OFFCURVE",
"600 1520 CURVE SMOOTH",
"840 1520 OFFCURVE",
"1032 1325 OFFCURVE",
"1055 1081 CURVE",
"1057 1081 LINE",
"1061 862 LINE",
"1066 862 OFFCURVE",
"1076 862 OFFCURVE",
"1091 863 CURVE SMOOTH",
"1119 864 OFFCURVE",
"1124 863 OFFCURVE",
"1148 859 CURVE SMOOTH",
"1171 855 OFFCURVE",
"1178 847 OFFCURVE",
"1186 829 CURVE SMOOTH",
"1190 820 OFFCURVE",
"1192 808 OFFCURVE",
"1192 795 CURVE SMOOTH",
"1192 66 LINE SMOOTH",
"1192 22 OFFCURVE",
"1170 0 OFFCURVE",
"1126 0 CURVE SMOOTH",
"66 0 LINE SMOOTH",
"22 0 OFFCURVE",
"0 22 OFFCURVE",
"0 66 CURVE SMOOTH"
);
},
{
closed = 1;
nodes = (
"332 862 LINE",
"862 862 LINE",
"862 1126 LINE SMOOTH",
"862 1265 OFFCURVE",
"748 1325 OFFCURVE",
"600 1325 CURVE SMOOTH",
"455 1325 OFFCURVE",
"332 1256 OFFCURVE",
"332 1116 CURVE SMOOTH"
);
}
);
width = 1191;
}
);
unicode = 0078;
},
{
glyphname = y;
layers = (
{
layerId = "927F5022-3E08-455B-85C5-6C9BF0A86A02";
name = Regular;
paths = (
{
closed = 1;
nodes = (
"156 -39 OFFCURVE",
"152 60 OFFCURVE",
"152 127 CURVE SMOOTH",
"152 194 OFFCURVE",
"156 293 OFFCURVE",
"164 424 CURVE SMOOTH",
"175 560 OFFCURVE",
"279 646 OFFCURVE",
"416 651 CURVE SMOOTH",
"550 658 OFFCURVE",
"753 661 OFFCURVE",
"1024 662 CURVE SMOOTH",
"1036 662 OFFCURVE",
"1048 662 OFFCURVE",
"1060 662 CURVE SMOOTH",
"1314 662 OFFCURVE",
"1505 658 OFFCURVE",
"1632 651 CURVE SMOOTH",
"1768 646 OFFCURVE",
"1873 560 OFFCURVE",
"1884 424 CURVE SMOOTH",
"1892 293 OFFCURVE",
"1896 194 OFFCURVE",
"1896 127 CURVE SMOOTH",
"1896 60 OFFCURVE",
"1892 -39 OFFCURVE",
"1884 -170 CURVE SMOOTH",
"1873 -306 OFFCURVE",
"1769 -392 OFFCURVE",
"1632 -397 CURVE SMOOTH",
"1361 -410 OFFCURVE",
"683 -412 OFFCURVE",
"416 -397 CURVE SMOOTH",
"280 -392 OFFCURVE",
"175 -306 OFFCURVE",
"164 -170 CURVE SMOOTH"
);
},
{
closed = 1;
nodes = (
"287 393 LINE",
"410 393 LINE",
"410 -207 LINE",
"528 -207 LINE",
"528 393 LINE",
"653 393 LINE",
"653 496 LINE",
"287 496 LINE"
);
},
{
closed = 1;
nodes = (
"301 1640 LINE",
"451 1640 LINE",
"545 1294 LINE",
"555 1294 LINE",
"645 1640 LINE",
"795 1640 LINE",
"682 1303 LINE",
"677 1286 OFFCURVE",
"670 1267 OFFCURVE",
"662 1246 CURVE SMOOTH",
"645 1203 OFFCURVE",
"633 1173 OFFCURVE",
"625 1133 CURVE",
"625 772 LINE",
"477 772 LINE",
"477 1116 LINE",
"474 1133 OFFCURVE",
"455 1191 OFFCURVE",
"418 1290 CURVE"
);
},
{
closed = 1;
nodes = (
"651 -125 LINE SMOOTH",
"651 -185 OFFCURVE",
"676 -215 OFFCURVE",
"725 -215 CURVE SMOOTH",
"766 -215 OFFCURVE",
"807 -193 OFFCURVE",
"848 -150 CURVE",
"848 -207 LINE",
"952 -207 LINE",
"952 311 LINE",
"848 311 LINE",
"848 -82 LINE",
"825 -108 OFFCURVE",
"803 -121 OFFCURVE",
"784 -121 CURVE SMOOTH",
"766 -121 OFFCURVE",
"757 -109 OFFCURVE",
"758 -86 CURVE",
"758 311 LINE",
"651 311 LINE"
);
},
{
closed = 1;
nodes = (
"788 1266 LINE SMOOTH",
"788 1373 OFFCURVE",
"874 1430 OFFCURVE",
"983 1430 CURVE SMOOTH",
"1087 1430 OFFCURVE",
"1167 1365 OFFCURVE",
"1167 1264 CURVE SMOOTH",
"1167 932 LINE SMOOTH",
"1167 817 OFFCURVE",
"1094 756 OFFCURVE",
"977 756 CURVE SMOOTH",
"865 756 OFFCURVE",
"788 825 OFFCURVE",
"788 934 CURVE SMOOTH"
);
},
{
closed = 1;
nodes = (
"924 922 LINE SMOOTH",
"924 887 OFFCURVE",
"942 869 OFFCURVE",
"977 868 CURVE",
"1015 869 OFFCURVE",
"1034 887 OFFCURVE",
"1034 922 CURVE SMOOTH",
"1034 1272 LINE SMOOTH",
"1034 1299 OFFCURVE",
"1004 1319 OFFCURVE",
"977 1319 CURVE SMOOTH",
"949 1319 OFFCURVE",
"924 1299 OFFCURVE",
"924 1272 CURVE SMOOTH"
);
},
{
closed = 1;
nodes = (
"1057 -207 LINE",
"1163 -207 LINE",
"1163 -166 LINE",
"1193 -197 OFFCURVE",
"1227 -213 OFFCURVE",
"1264 -213 CURVE SMOOTH",
"1328 -213 OFFCURVE",
"1360 -175 OFFCURVE",
"1360 -98 CURVE SMOOTH",
"1360 188 LINE SMOOTH",
"1360 274 OFFCURVE",
"1326 317 OFFCURVE",
"1257 317 CURVE SMOOTH",
"1223 317 OFFCURVE",
"1192 301 OFFCURVE",
"1163 270 CURVE",
"1163 496 LINE",
"1057 496 LINE"
);
},
{
closed = 1;
nodes = (
"1163 215 LINE",
"1176 228 OFFCURVE",
"1191 235 OFFCURVE",
"1208 236 CURVE",
"1237 235 OFFCURVE",
"1251 218 OFFCURVE",
"1251 184 CURVE SMOOTH",
"1251 -88 LINE SMOOTH",
"1251 -117 OFFCURVE",
"1239 -131 OFFCURVE",
"1214 -131 CURVE SMOOTH",
"1195 -131 OFFCURVE",
"1178 -124 OFFCURVE",
"1163 -109 CURVE"
);
},
{
closed = 1;
nodes = (
"1278 1413 LINE",
"1409 1413 LINE",
"1409 922 LINE SMOOTH",
"1409 893 OFFCURVE",
"1421 879 OFFCURVE",
"1444 879 CURVE SMOOTH",
"1467 879 OFFCURVE",
"1493 895 OFFCURVE",
"1522 928 CURVE",
"1522 1413 LINE",
"1653 1413 LINE",
"1653 772 LINE",
"1522 772 LINE",
"1522 844 LINE",
"1471 791 OFFCURVE",
"1421 764 OFFCURVE",
"1370 764 CURVE SMOOTH",
"1309 764 OFFCURVE",
"1278 802 OFFCURVE",
"1278 879 CURVE SMOOTH"
);
},
{
closed = 1;
nodes = (
"1440 -59 LINE SMOOTH",
"1440 -158 OFFCURVE",
"1496 -221 OFFCURVE",
"1593 -221 CURVE SMOOTH",
"1698 -221 OFFCURVE",
"1751 -167 OFFCURVE",
"1751 -59 CURVE SMOOTH",
"1751 -20 LINE",
"1642 -20 LINE",
"1642 -23 OFFCURVE",
"1643 -32 OFFCURVE",
"1644 -47 CURVE SMOOTH",
"1646 -78 OFFCURVE",
"1643 -83 OFFCURVE",
"1638 -102 CURVE SMOOTH",
"1633 -122 OFFCURVE",
"1620 -129 OFFCURVE",
"1595 -129 CURVE SMOOTH",
"1568 -129 OFFCURVE",
"1552 -108 OFFCURVE",
"1551 -92 CURVE",
"1550 -84 OFFCURVE",
"1550 -72 OFFCURVE",
"1550 -57 CURVE SMOOTH",
"1550 41 LINE",
"1751 41 LINE",
"1751 172 LINE SMOOTH",
"1751 268 OFFCURVE",
"1697 326 OFFCURVE",
"1602 326 CURVE SMOOTH",
"1509 326 OFFCURVE",
"1440 265 OFFCURVE",
"1440 172 CURVE SMOOTH"
);
},
{
closed = 1;
nodes = (
"1550 121 LINE",
"1550 178 LINE SMOOTH",
"1550 215 OFFCURVE",
"1566 233 OFFCURVE",
"1597 233 CURVE SMOOTH",
"1627 233 OFFCURVE",
"1642 215 OFFCURVE",
"1642 178 CURVE SMOOTH",
"1642 121 LINE"
);
}
);
width = 2048;
}
);
unicode = 0079;
},
{
glyphname = z;
layers = (
{
layerId = "927F5022-3E08-455B-85C5-6C9BF0A86A02";
name = Regular;
paths = (
{
closed = 1;
nodes = (
"0 -391 LINE",
"0 766 LINE",
"872 1638 LINE",
"891 1638 LINE",
"1176 1354 LINE",
"2048 481 LINE",
"2048 463 LINE",
"1176 -410 LINE",
"18 -410 LINE"
);
},
{
closed = 1;
nodes = (
"588 199 LINE",
"608 178 LINE",
"1745 178 LINE",
"1763 199 LINE",
"1763 748 LINE",
"1745 766 LINE",
"1196 766 LINE",
"1176 786 LINE",
"1176 1354 LINE",
"608 1354 LINE",
"588 1335 LINE"
);
}
);
width = 2048;
}
);
unicode = 007A;
},
{
glyphname = zero;
layers = (
{
layerId = "927F5022-3E08-455B-85C5-6C9BF0A86A02";
name = Regular;
paths = (
{
closed = 1;
nodes = (
"0 635 LINE",
"0 877 LINE",
"543 877 LINE",
"543 635 LINE"
);
},
{
closed = 1;
nodes = (
"215 117 LINE",
"598 500 LINE",
"768 330 LINE",
"385 -53 LINE"
);
},
{
closed = 1;
nodes = (
"215 1395 LINE",
"385 1565 LINE",
"768 1182 LINE",
"598 1012 LINE"
);
},
{
closed = 1;
nodes = (
"903 -268 LINE",
"903 274 LINE",
"1145 274 LINE",
"1145 -268 LINE"
);
},
{
closed = 1;
nodes = (
"903 1237 LINE",
"903 1780 LINE",
"1145 1780 LINE",
"1145 1237 LINE"
);
},
{
closed = 1;
nodes = (
"1280 330 LINE",
"1450 500 LINE",
"1833 117 LINE",
"1663 -53 LINE"
);
},
{
closed = 1;
nodes = (
"1505 635 LINE",
"1505 877 LINE",
"2048 877 LINE",
"2048 635 LINE"
);
}
);
width = 2048;
}
);
unicode = 0030;
},
{
glyphname = one;
layers = (
{
layerId = "927F5022-3E08-455B-85C5-6C9BF0A86A02";
name = Regular;
paths = (
{
closed = 1;
nodes = (
"0 635 LINE",
"0 877 LINE",
"543 877 LINE",
"543 635 LINE"
);
},
{
closed = 1;
nodes = (
"215 117 LINE",
"598 500 LINE",
"768 330 LINE",
"385 -53 LINE"
);
},
{
closed = 1;
nodes = (
"215 1395 LINE",
"385 1565 LINE",
"768 1182 LINE",
"598 1012 LINE"
);
},
{
closed = 1;
nodes = (
"903 -268 LINE",
"903 274 LINE",
"1145 274 LINE",
"1145 -268 LINE"
);
},
{
closed = 1;
nodes = (
"903 1237 LINE",
"903 1780 LINE",
"1145 1780 LINE",
"1145 1237 LINE"
);
},
{
closed = 1;
nodes = (
"1280 330 LINE",
"1450 500 LINE",
"1833 117 LINE",
"1663 -53 LINE"
);
},
{
closed = 1;
nodes = (
"1280 1182 LINE",
"1663 1565 LINE",
"1833 1395 LINE",
"1450 1012 LINE"
);
}
);
width = 2048;
}
);
unicode = 0031;
},
{
glyphname = two;
layers = (
{
layerId = "927F5022-3E08-455B-85C5-6C9BF0A86A02";
name = Regular;
paths = (
{
closed = 1;
nodes = (
"0 635 LINE",
"0 877 LINE",
"543 877 LINE",
"543 635 LINE"
);
},
{
closed = 1;
nodes = (
"215 117 LINE",
"598 500 LINE",
"768 330 LINE",
"385 -53 LINE"
);
},
{
closed = 1;
nodes = (
"215 1395 LINE",
"385 1565 LINE",
"768 1182 LINE",
"598 1012 LINE"
);
},
{
closed = 1;
nodes = (
"903 -268 LINE",
"903 274 LINE",
"1145 274 LINE",
"1145 -268 LINE"
);
},
{
closed = 1;
nodes = (
"903 1237 LINE",
"903 1780 LINE",
"1145 1780 LINE",
"1145 1237 LINE"
);
},
{
closed = 1;
nodes = (
"1280 1182 LINE",
"1663 1565 LINE",
"1833 1395 LINE",
"1450 1012 LINE"
);
},
{
closed = 1;
nodes = (
"1505 635 LINE",
"1505 877 LINE",
"2048 877 LINE",
"2048 635 LINE"
);
}
);
width = 2048;
}
);
unicode = 0032;
},
{
glyphname = three;
layers = (
{
layerId = "927F5022-3E08-455B-85C5-6C9BF0A86A02";
name = Regular;
paths = (
{
closed = 1;
nodes = (
"0 635 LINE",
"0 877 LINE",
"543 877 LINE",
"543 635 LINE"
);
},
{
closed = 1;
nodes = (
"215 117 LINE",
"598 500 LINE",
"768 330 LINE",
"385 -53 LINE"
);
},
{
closed = 1;
nodes = (
"215 1395 LINE",
"385 1565 LINE",
"768 1182 LINE",
"598 1012 LINE"
);
},
{
closed = 1;
nodes = (
"903 1237 LINE",
"903 1780 LINE",
"1145 1780 LINE",
"1145 1237 LINE"
);
},
{
closed = 1;
nodes = (
"1280 330 LINE",
"1450 500 LINE",
"1833 117 LINE",
"1663 -53 LINE"
);
},
{
closed = 1;
nodes = (
"1280 1182 LINE",
"1663 1565 LINE",
"1833 1395 LINE",
"1450 1012 LINE"
);
},
{
closed = 1;
nodes = (
"1505 635 LINE",
"1505 877 LINE",
"2048 877 LINE",
"2048 635 LINE"
);
}
);
width = 2048;
}
);
unicode = 0033;
},
{
glyphname = four;
layers = (
{
layerId = "927F5022-3E08-455B-85C5-6C9BF0A86A02";
name = Regular;
paths = (
{
closed = 1;
nodes = (
"0 635 LINE",
"0 877 LINE",
"543 877 LINE",
"543 635 LINE"
);
},
{
closed = 1;
nodes = (
"215 1395 LINE",
"385 1565 LINE",
"768 1182 LINE",
"598 1012 LINE"
);
},
{
closed = 1;
nodes = (
"903 -268 LINE",
"903 274 LINE",
"1145 274 LINE",
"1145 -268 LINE"
);
},
{
closed = 1;
nodes = (
"903 1237 LINE",
"903 1780 LINE",
"1145 1780 LINE",
"1145 1237 LINE"
);
},
{
closed = 1;
nodes = (
"1280 330 LINE",
"1450 500 LINE",
"1833 117 LINE",
"1663 -53 LINE"
);
},
{
closed = 1;
nodes = (
"1280 1182 LINE",
"1663 1565 LINE",
"1833 1395 LINE",
"1450 1012 LINE"
);
},
{
closed = 1;
nodes = (
"1505 635 LINE",
"1505 877 LINE",
"2048 877 LINE",
"2048 635 LINE"
);
}
);
width = 2048;
}
);
unicode = 0034;
},
{
glyphname = five;
layers = (
{
layerId = "927F5022-3E08-455B-85C5-6C9BF0A86A02";
name = Regular;
paths = (
{
closed = 1;
nodes = (
"215 117 LINE",
"598 500 LINE",
"768 330 LINE",
"385 -53 LINE"
);
},
{
closed = 1;
nodes = (
"215 1395 LINE",
"385 1565 LINE",
"768 1182 LINE",
"598 1012 LINE"
);
},
{
closed = 1;
nodes = (
"903 -268 LINE",
"903 274 LINE",
"1145 274 LINE",
"1145 -268 LINE"
);
},
{
closed = 1;
nodes = (
"903 1237 LINE",
"903 1780 LINE",
"1145 1780 LINE",
"1145 1237 LINE"
);
},
{
closed = 1;
nodes = (
"1280 330 LINE",
"1450 500 LINE",
"1833 117 LINE",
"1663 -53 LINE"
);
},
{
closed = 1;
nodes = (
"1280 1182 LINE",
"1663 1565 LINE",
"1833 1395 LINE",
"1450 1012 LINE"
);
},
{
closed = 1;
nodes = (
"1505 635 LINE",
"1505 877 LINE",
"2048 877 LINE",
"2048 635 LINE"
);
}
);
width = 2048;
}
);
unicode = 0035;
},
{
glyphname = six;
layers = (
{
layerId = "927F5022-3E08-455B-85C5-6C9BF0A86A02";
name = Regular;
paths = (
{
closed = 1;
nodes = (
"0 635 LINE",
"0 877 LINE",
"543 877 LINE",
"543 635 LINE"
);
},
{
closed = 1;
nodes = (
"215 117 LINE",
"598 500 LINE",
"768 330 LINE",
"385 -53 LINE"
);
},
{
closed = 1;
nodes = (
"903 -268 LINE",
"903 274 LINE",
"1145 274 LINE",
"1145 -268 LINE"
);
},
{
closed = 1;
nodes = (
"903 1237 LINE",
"903 1780 LINE",
"1145 1780 LINE",
"1145 1237 LINE"
);
},
{
closed = 1;
nodes = (
"1280 330 LINE",
"1450 500 LINE",
"1833 117 LINE",
"1663 -53 LINE"
);
},
{
closed = 1;
nodes = (
"1280 1182 LINE",
"1663 1565 LINE",
"1833 1395 LINE",
"1450 1012 LINE"
);
},
{
closed = 1;
nodes = (
"1505 635 LINE",
"1505 877 LINE",
"2048 877 LINE",
"2048 635 LINE"
);
}
);
width = 2048;
}
);
unicode = 0036;
},
{
glyphname = seven;
layers = (
{
layerId = "927F5022-3E08-455B-85C5-6C9BF0A86A02";
name = Regular;
paths = (
{
closed = 1;
nodes = (
"0 635 LINE",
"0 877 LINE",
"543 877 LINE",
"543 635 LINE"
);
},
{
closed = 1;
nodes = (
"215 117 LINE",
"598 500 LINE",
"768 330 LINE",
"385 -53 LINE"
);
},
{
closed = 1;
nodes = (
"215 1395 LINE",
"385 1565 LINE",
"768 1182 LINE",
"598 1012 LINE"
);
},
{
closed = 1;
nodes = (
"903 -268 LINE",
"903 274 LINE",
"1145 274 LINE",
"1145 -268 LINE"
);
},
{
closed = 1;
nodes = (
"1280 330 LINE",
"1450 500 LINE",
"1833 117 LINE",
"1663 -53 LINE"
);
},
{
closed = 1;
nodes = (
"1280 1182 LINE",
"1663 1565 LINE",
"1833 1395 LINE",
"1450 1012 LINE"
);
},
{
closed = 1;
nodes = (
"1505 635 LINE",
"1505 877 LINE",
"2048 877 LINE",
"2048 635 LINE"
);
}
);
width = 2048;
}
);
unicode = 0037;
},
{
glyphname = asterisk;
layers = (
{
layerId = "927F5022-3E08-455B-85C5-6C9BF0A86A02";
name = Regular;
paths = (
{
closed = 1;
nodes = (
"46 258 OFFCURVE",
"0 429 OFFCURVE",
"0 615 CURVE SMOOTH",
"0 986 OFFCURVE",
"196 1318 OFFCURVE",
"510 1501 CURVE SMOOTH",
"667 1592 OFFCURVE",
"838 1638 OFFCURVE",
"1024 1638 CURVE SMOOTH",
"1396 1638 OFFCURVE",
"1728 1443 OFFCURVE",
"1911 1129 CURVE SMOOTH",
"2002 972 OFFCURVE",
"2048 800 OFFCURVE",
"2048 615 CURVE SMOOTH",
"2048 243 OFFCURVE",
"1853 -89 OFFCURVE",
"1539 -272 CURVE SMOOTH",
"1382 -364 OFFCURVE",
"1210 -410 OFFCURVE",
"1024 -410 CURVE SMOOTH",
"652 -410 OFFCURVE",
"320 -213 OFFCURVE",
"137 101 CURVE SMOOTH"
);
},
{
closed = 1;
nodes = (
"429 940 OFFCURVE",
"365 788 OFFCURVE",
"365 609 CURVE SMOOTH",
"365 251 OFFCURVE",
"656 -39 OFFCURVE",
"1014 -39 CURVE SMOOTH",
"1193 -39 OFFCURVE",
"1345 24 OFFCURVE",
"1470 150 CURVE",
"1343 295 LINE",
"1253 208 OFFCURVE",
"1147 164 OFFCURVE",
"1024 164 CURVE SMOOTH",
"776 164 OFFCURVE",
"573 366 OFFCURVE",
"573 615 CURVE SMOOTH",
"573 863 OFFCURVE",
"776 1065 OFFCURVE",
"1024 1065 CURVE SMOOTH",
"1154 1065 OFFCURVE",
"1260 1021 OFFCURVE",
"1343 934 CURVE SMOOTH",
"1364 913 OFFCURVE",
"1372 891 OFFCURVE",
"1380 859 CURVE SMOOTH",
"1384 842 OFFCURVE",
"1388 829 OFFCURVE",
"1393 819 CURVE",
"1147 819 LINE",
"1516 451 LINE",
"1884 819 LINE",
"1638 819 LINE",
"1557 1070 OFFCURVE",
"1281 1255 OFFCURVE",
"1014 1255 CURVE SMOOTH",
"835 1255 OFFCURVE",
"683 1192 OFFCURVE",
"556 1066 CURVE SMOOTH"
);
}
);
width = 2048;
}
);
unicode = 002A;
},
{
glyphname = backslash;
layers = (
{
layerId = "927F5022-3E08-455B-85C5-6C9BF0A86A02";
name = Regular;
paths = (
{
closed = 1;
nodes = (
"46 258 OFFCURVE",
"0 429 OFFCURVE",
"0 615 CURVE SMOOTH",
"0 986 OFFCURVE",
"196 1318 OFFCURVE",
"510 1501 CURVE SMOOTH",
"667 1592 OFFCURVE",
"838 1638 OFFCURVE",
"1024 1638 CURVE SMOOTH",
"1396 1638 OFFCURVE",
"1728 1443 OFFCURVE",
"1911 1129 CURVE SMOOTH",
"2002 972 OFFCURVE",
"2048 800 OFFCURVE",
"2048 615 CURVE SMOOTH",
"2048 243 OFFCURVE",
"1853 -89 OFFCURVE",
"1539 -272 CURVE SMOOTH",
"1382 -364 OFFCURVE",
"1210 -410 OFFCURVE",
"1024 -410 CURVE SMOOTH",
"652 -410 OFFCURVE",
"320 -213 OFFCURVE",
"137 101 CURVE SMOOTH"
);
},
{
closed = 1;
nodes = (
"240 182 OFFCURVE",
"592 -170 OFFCURVE",
"1024 -170 CURVE SMOOTH",
"1196 -170 OFFCURVE",
"1350 -119 OFFCURVE",
"1487 -18 CURVE",
"391 1077 LINE",
"290 940 OFFCURVE",
"239 786 OFFCURVE",
"240 614 CURVE SMOOTH"
);
},
{
closed = 1;
nodes = (
"1657 152 LINE",
"1758 288 OFFCURVE",
"1808 442 OFFCURVE",
"1808 614 CURVE SMOOTH",
"1808 1046 OFFCURVE",
"1456 1399 OFFCURVE",
"1024 1399 CURVE SMOOTH",
"852 1399 OFFCURVE",
"698 1348 OFFCURVE",
"561 1247 CURVE"
);
}
);
width = 2048;
}
);
unicode = 005C;
},
{
glyphname = colon;
layers = (
{
layerId = "927F5022-3E08-455B-85C5-6C9BF0A86A02";
name = Regular;
paths = (
{
closed = 1;
nodes = (
"46 258 OFFCURVE",
"0 429 OFFCURVE",
"0 615 CURVE SMOOTH",
"0 986 OFFCURVE",
"196 1318 OFFCURVE",
"510 1501 CURVE SMOOTH",
"667 1592 OFFCURVE",
"838 1638 OFFCURVE",
"1024 1638 CURVE SMOOTH",
"1396 1638 OFFCURVE",
"1728 1443 OFFCURVE",
"1911 1129 CURVE SMOOTH",
"2002 972 OFFCURVE",
"2048 800 OFFCURVE",
"2048 615 CURVE SMOOTH",
"2048 243 OFFCURVE",
"1853 -89 OFFCURVE",
"1539 -272 CURVE SMOOTH",
"1382 -364 OFFCURVE",
"1210 -410 OFFCURVE",
"1024 -410 CURVE SMOOTH",
"652 -410 OFFCURVE",
"320 -213 OFFCURVE",
"137 101 CURVE SMOOTH"
);
},
{
closed = 1;
nodes = (
"549 518 LINE",
"694 373 LINE",
"1024 702 LINE",
"1354 373 LINE",
"1499 518 LINE",
"1024 995 LINE"
);
}
);
width = 2048;
}
);
unicode = 003A;
},
{
glyphname = comma;
layers = (
{
layerId = "927F5022-3E08-455B-85C5-6C9BF0A86A02";
name = Regular;
paths = (
{
closed = 1;
nodes = (
"0 420 LINE",
"1219 1638 LINE",
"1772 1638 LINE",
"2048 1362 LINE",
"2048 809 LINE",
"829 -410 LINE"
);
},
{
closed = 1;
nodes = (
"1405 1272 OFFCURVE",
"1386 1226 OFFCURVE",
"1386 1173 CURVE SMOOTH",
"1386 1065 OFFCURVE",
"1474 977 OFFCURVE",
"1582 977 CURVE SMOOTH",
"1690 977 OFFCURVE",
"1778 1065 OFFCURVE",
"1778 1173 CURVE SMOOTH",
"1778 1280 OFFCURVE",
"1690 1368 OFFCURVE",
"1582 1368 CURVE SMOOTH",
"1528 1368 OFFCURVE",
"1482 1349 OFFCURVE",
"1444 1311 CURVE SMOOTH"
);
}
);
width = 2048;
}
);
unicode = 002C;
},
{
glyphname = ellipsis;
layers = (
{
layerId = "927F5022-3E08-455B-85C5-6C9BF0A86A02";
name = Regular;
paths = (
{
closed = 1;
nodes = (
"5047 834 LINE",
"5633 322 LINE",
"6042 731 OFFCURVE",
"6416 1081 OFFCURVE",
"6625 1262 CURVE SMOOTH",
"6730 1352 OFFCURVE",
"6820 1428 OFFCURVE",
"6895 1489 CURVE SMOOTH",
"6970 1550 OFFCURVE",
"7022 1591 OFFCURVE",
"7051 1610 CURVE SMOOTH",
"7095 1638 LINE",
"7100 1638 OFFCURVE",
"7108 1637 OFFCURVE",
"7118 1634 CURVE SMOOTH",
"7127 1631 OFFCURVE",
"7145 1618 OFFCURVE",
"7171 1595 CURVE SMOOTH",
"7197 1571 OFFCURVE",
"7221 1537 OFFCURVE",
"7243 1493 CURVE",
"6902 1190 OFFCURVE",
"6492 677 OFFCURVE",
"6013 -44 CURVE SMOOTH",
"5778 -410 LINE",
"5581 -164 OFFCURVE",
"5265 177 OFFCURVE",
"4828 614 CURVE"
);
},
{
closed = 1;
nodes = (
"2633 834 LINE",
"3219 322 LINE",
"3628 731 OFFCURVE",
"4002 1081 OFFCURVE",
"4211 1262 CURVE SMOOTH",
"4316 1352 OFFCURVE",
"4406 1428 OFFCURVE",
"4481 1489 CURVE SMOOTH",
"4556 1550 OFFCURVE",
"4608 1591 OFFCURVE",
"4637 1610 CURVE SMOOTH",
"4681 1638 LINE",
"4686 1638 OFFCURVE",
"4694 1637 OFFCURVE",
"4704 1634 CURVE SMOOTH",
"4713 1631 OFFCURVE",
"4731 1618 OFFCURVE",
"4757 1595 CURVE SMOOTH",
"4783 1571 OFFCURVE",
"4807 1537 OFFCURVE",
"4829 1493 CURVE",
"4488 1190 OFFCURVE",
"4078 677 OFFCURVE",
"3599 -44 CURVE SMOOTH",
"3364 -410 LINE",
"3167 -164 OFFCURVE",
"2851 177 OFFCURVE",
"2414 614 CURVE"
);
},
{
closed = 1;
nodes = (
"219 834 LINE",
"805 322 LINE",
"1214 731 OFFCURVE",
"1588 1081 OFFCURVE",
"1797 1262 CURVE SMOOTH",
"1902 1352 OFFCURVE",
"1992 1428 OFFCURVE",
"2067 1489 CURVE SMOOTH",
"2142 1550 OFFCURVE",
"2194 1591 OFFCURVE",
"2223 1610 CURVE SMOOTH",
"2267 1638 LINE",
"2272 1638 OFFCURVE",
"2280 1637 OFFCURVE",
"2290 1634 CURVE SMOOTH",
"2299 1631 OFFCURVE",
"2317 1618 OFFCURVE",
"2343 1595 CURVE SMOOTH",
"2369 1571 OFFCURVE",
"2393 1537 OFFCURVE",
"2415 1493 CURVE",
"2074 1190 OFFCURVE",
"1664 677 OFFCURVE",
"1185 -44 CURVE SMOOTH",
"950 -410 LINE",
"753 -164 OFFCURVE",
"437 177 OFFCURVE",
"0 614 CURVE"
);
}
);
width = 7242;
}
);
unicode = 2026;
},
{
glyphname = numbersign;
layers = (
{
layerId = "927F5022-3E08-455B-85C5-6C9BF0A86A02";
name = Regular;
paths = (
{
closed = 1;
nodes = (
"0 -408 LINE",
"0 1640 LINE",
"1976 1640 LINE",
"1976 -408 LINE"
);
},
{
closed = 1;
nodes = (
"166 1049 LINE",
"197 1000 OFFCURVE",
"240 975 OFFCURVE",
"293 975 CURVE SMOOTH",
"397 975 OFFCURVE",
"455 1042 OFFCURVE",
"455 1149 CURVE SMOOTH",
"455 1481 LINE",
"176 1481 LINE",
"176 1376 LINE",
"328 1376 LINE",
"328 1147 LINE SMOOTH",
"328 1063 OFFCURVE",
"279 1070 OFFCURVE",
"236 1122 CURVE"
);
},
{
closed = 1;
nodes = (
"178 -229 LINE",
"305 -229 LINE",
"305 72 LINE",
"307 72 LINE",
"543 -229 LINE",
"670 -229 LINE",
"670 264 LINE",
"543 264 LINE",
"543 -39 LINE",
"541 -39 LINE",
"305 264 LINE",
"178 264 LINE"
);
},
{
closed = 1;
nodes = (
"178 379 LINE",
"375 379 LINE SMOOTH",
"476 379 OFFCURVE",
"553 420 OFFCURVE",
"553 516 CURVE SMOOTH",
"553 591 OFFCURVE",
"520 634 OFFCURVE",
"453 643 CURVE",
"490 662 OFFCURVE",
"508 696 OFFCURVE",
"508 743 CURVE SMOOTH",
"508 829 OFFCURVE",
"459 872 OFFCURVE",
"360 872 CURVE SMOOTH",
"178 872 LINE"
);
},
{
closed = 1;
nodes = (
"305 477 LINE",
"305 584 LINE",
"352 584 LINE SMOOTH",
"400 584 OFFCURVE",
"424 566 OFFCURVE",
"424 531 CURVE SMOOTH",
"424 495 OFFCURVE",
"395 477 OFFCURVE",
"338 477 CURVE SMOOTH"
);
},
{
closed = 1;
nodes = (
"305 680 LINE",
"305 774 LINE",
"322 774 LINE SMOOTH",
"367 774 OFFCURVE",
"389 758 OFFCURVE",
"389 727 CURVE SMOOTH",
"389 696 OFFCURVE",
"366 680 OFFCURVE",
"319 680 CURVE SMOOTH"
);
},
{
closed = 1;
nodes = (
"559 1204 LINE SMOOTH",
"559 1048 OFFCURVE",
"620 975 OFFCURVE",
"776 975 CURVE SMOOTH",
"929 975 OFFCURVE",
"991 1048 OFFCURVE",
"991 1204 CURVE SMOOTH",
"991 1481 LINE",
"862 1481 LINE",
"862 1223 LINE SMOOTH",
"862 1168 OFFCURVE",
"861 1141 OFFCURVE",
"834 1110 CURVE SMOOTH",
"820 1095 OFFCURVE",
"801 1087 OFFCURVE",
"776 1087 CURVE SMOOTH",
"703 1087 OFFCURVE",
"688 1138 OFFCURVE",
"688 1223 CURVE SMOOTH",
"688 1481 LINE",
"559 1481 LINE"
);
},
{
closed = 1;
nodes = (
"633 379 LINE",
"913 379 LINE",
"913 487 LINE",
"762 487 LINE",
"762 573 LINE",
"905 573 LINE",
"905 682 LINE",
"762 682 LINE",
"762 764 LINE",
"913 764 LINE",
"913 872 LINE",
"633 872 LINE"
);
},
{
closed = 1;
nodes = (
"795 -229 LINE",
"924 -229 LINE",
"924 264 LINE",
"795 264 LINE"
);
},
{
closed = 1;
nodes = (
"1024 -132 OFFCURVE",
"1141 -242 OFFCURVE",
"1288 -242 CURVE SMOOTH",
"1318 -242 OFFCURVE",
"1356 -234 OFFCURVE",
"1401 -219 CURVE",
"1401 -66 LINE",
"1372 -101 OFFCURVE",
"1335 -119 OFFCURVE",
"1290 -119 CURVE SMOOTH",
"1211 -119 OFFCURVE",
"1157 -63 OFFCURVE",
"1157 16 CURVE SMOOTH",
"1157 92 OFFCURVE",
"1212 152 OFFCURVE",
"1288 152 CURVE SMOOTH",
"1336 152 OFFCURVE",
"1374 134 OFFCURVE",
"1401 98 CURVE",
"1401 252 LINE",
"1317 285 OFFCURVE",
"1200 302 OFFCURVE",
"1100 200 CURVE SMOOTH",
"1049 149 OFFCURVE",
"1024 87 OFFCURVE",
"1024 16 CURVE SMOOTH"
);
},
{
closed = 1;
nodes = (
"1063 1032 LINE",
"1114 994 OFFCURVE",
"1171 975 OFFCURVE",
"1235 975 CURVE SMOOTH",
"1352 975 OFFCURVE",
"1427 1038 OFFCURVE",
"1427 1155 CURVE SMOOTH",
"1427 1228 OFFCURVE",
"1373 1273 OFFCURVE",
"1321 1285 CURVE SMOOTH",
"1269 1297 OFFCURVE",
"1214 1315 OFFCURVE",
"1214 1346 CURVE SMOOTH",
"1214 1373 OFFCURVE",
"1242 1386 OFFCURVE",
"1270 1386 CURVE SMOOTH",
"1301 1386 OFFCURVE",
"1330 1375 OFFCURVE",
"1356 1354 CURVE",
"1407 1454 LINE",
"1359 1481 OFFCURVE",
"1307 1495 OFFCURVE",
"1251 1495 CURVE SMOOTH",
"1152 1495 OFFCURVE",
"1081 1428 OFFCURVE",
"1081 1329 CURVE SMOOTH",
"1081 1250 OFFCURVE",
"1134 1206 OFFCURVE",
"1187 1197 CURVE SMOOTH",
"1240 1188 OFFCURVE",
"1292 1170 OFFCURVE",
"1292 1135 CURVE SMOOTH",
"1292 1102 OFFCURVE",
"1263 1083 OFFCURVE",
"1231 1083 CURVE SMOOTH",
"1197 1083 OFFCURVE",
"1159 1100 OFFCURVE",
"1116 1135 CURVE"
);
},
{
closed = 1;
nodes = (
"1483 1372 LINE",
"1587 1372 LINE",
"1587 989 LINE",
"1716 989 LINE",
"1716 1372 LINE",
"1823 1372 LINE",
"1823 1481 LINE",
"1483 1481 LINE"
);
},
{
closed = 1;
nodes = (
"1516 -229 LINE",
"1796 -229 LINE",
"1796 -121 LINE",
"1642 -121 LINE",
"1642 -37 LINE",
"1788 -37 LINE",
"1788 72 LINE",
"1642 72 LINE",
"1642 156 LINE",
"1796 156 LINE",
"1796 264 LINE",
"1516 264 LINE"
);
}
);
width = 1976;
}
);
unicode = 0023;
},
{
glyphname = period;
layers = (
{
layerId = "927F5022-3E08-455B-85C5-6C9BF0A86A02";
name = Regular;
paths = (
{
closed = 1;
nodes = (
"219 834 LINE",
"805 322 LINE",
"1214 731 OFFCURVE",
"1588 1081 OFFCURVE",
"1797 1262 CURVE SMOOTH",
"1902 1352 OFFCURVE",
"1992 1428 OFFCURVE",
"2067 1489 CURVE SMOOTH",
"2142 1550 OFFCURVE",
"2194 1591 OFFCURVE",
"2223 1610 CURVE SMOOTH",
"2267 1638 LINE",
"2272 1638 OFFCURVE",
"2280 1637 OFFCURVE",
"2290 1634 CURVE SMOOTH",
"2299 1631 OFFCURVE",
"2317 1618 OFFCURVE",
"2343 1595 CURVE SMOOTH",
"2369 1571 OFFCURVE",
"2393 1537 OFFCURVE",
"2415 1493 CURVE",
"2074 1190 OFFCURVE",
"1664 677 OFFCURVE",
"1185 -44 CURVE SMOOTH",
"950 -410 LINE",
"753 -164 OFFCURVE",
"437 177 OFFCURVE",
"0 614 CURVE"
);
}
);
width = 2414;
}
);
unicode = 002E;
},
{
glyphname = question;
layers = (
{
layerId = "927F5022-3E08-455B-85C5-6C9BF0A86A02";
name = Regular;
paths = (
{
closed = 1;
nodes = (
"0 1038 LINE",
"0 1369 OFFCURVE",
"269 1638 OFFCURVE",
"600 1638 CURVE SMOOTH",
"931 1638 OFFCURVE",
"1200 1369 OFFCURVE",
"1200 1038 CURVE SMOOTH",
"1200 1029 OFFCURVE",
"1199 1015 OFFCURVE",
"1197 996 CURVE SMOOTH",
"1195 977 OFFCURVE",
"1183 928 OFFCURVE",
"1161 849 CURVE SMOOTH",
"1117 692 OFFCURVE",
"1057 522 OFFCURVE",
"892 169 CURVE SMOOTH",
"809 -8 OFFCURVE",
"712 -201 OFFCURVE",
"600 -410 CURVE",
"376 7 OFFCURVE",
"203 381 OFFCURVE",
"128 586 CURVE SMOOTH",
"91 688 OFFCURVE",
"61 775 OFFCURVE",
"40 848 CURVE SMOOTH",
"19 920 OFFCURVE",
"7 970 OFFCURVE",
"4 997 CURVE SMOOTH"
);
},
{
closed = 1;
nodes = (
"441 1129 OFFCURVE",
"424 1088 OFFCURVE",
"424 1039 CURVE SMOOTH",
"424 941 OFFCURVE",
"501 862 OFFCURVE",
"600 862 CURVE SMOOTH",
"699 862 OFFCURVE",
"776 941 OFFCURVE",
"776 1039 CURVE SMOOTH",
"776 1137 OFFCURVE",
"699 1214 OFFCURVE",
"600 1214 CURVE SMOOTH",
"551 1214 OFFCURVE",
"509 1197 OFFCURVE",
"475 1163 CURVE SMOOTH"
);
}
);
width = 1200;
}
);
unicode = 003F;
},
{
glyphname = quotesingle;
layers = (
{
layerId = "927F5022-3E08-455B-85C5-6C9BF0A86A02";
name = Regular;
paths = (
{
closed = 1;
nodes = (
"0 -94 LINE",
"709 614 LINE",
"0 1323 LINE",
"315 1638 LINE",
"1024 930 LINE",
"1733 1638 LINE",
"2048 1323 LINE",
"1339 614 LINE",
"2048 -94 LINE",
"1733 -410 LINE",
"1024 299 LINE",
"315 -410 LINE"
);
}
);
width = 2048;
}
);
unicode = 0027;
},
{
glyphname = semicolon;
layers = (
{
layerId = "927F5022-3E08-455B-85C5-6C9BF0A86A02";
name = Regular;
paths = (
{
closed = 1;
nodes = (
"46 258 OFFCURVE",
"0 429 OFFCURVE",
"0 615 CURVE SMOOTH",
"0 986 OFFCURVE",
"196 1318 OFFCURVE",
"510 1501 CURVE SMOOTH",
"667 1592 OFFCURVE",
"838 1638 OFFCURVE",
"1024 1638 CURVE SMOOTH",
"1396 1638 OFFCURVE",
"1728 1443 OFFCURVE",
"1911 1129 CURVE SMOOTH",
"2002 972 OFFCURVE",
"2048 800 OFFCURVE",
"2048 615 CURVE SMOOTH",
"2048 243 OFFCURVE",
"1853 -89 OFFCURVE",
"1539 -272 CURVE SMOOTH",
"1382 -364 OFFCURVE",
"1210 -410 OFFCURVE",
"1024 -410 CURVE SMOOTH",
"652 -410 OFFCURVE",
"320 -213 OFFCURVE",
"137 101 CURVE SMOOTH"
);
},
{
closed = 1;
nodes = (
"549 711 LINE",
"1024 233 LINE",
"1499 711 LINE",
"1354 856 LINE",
"1024 526 LINE",
"694 856 LINE"
);
}
);
width = 2048;
}
);
unicode = 003B;
},
{
glyphname = slash;
layers = (
{
layerId = "927F5022-3E08-455B-85C5-6C9BF0A86A02";
name = Regular;
paths = (
{
closed = 1;
nodes = (
"46 260 OFFCURVE",
"0 431 OFFCURVE",
"0 617 CURVE SMOOTH",
"0 988 OFFCURVE",
"196 1320 OFFCURVE",
"510 1503 CURVE SMOOTH",
"667 1594 OFFCURVE",
"838 1640 OFFCURVE",
"1024 1640 CURVE SMOOTH",
"1396 1640 OFFCURVE",
"1728 1445 OFFCURVE",
"1911 1131 CURVE SMOOTH",
"2002 974 OFFCURVE",
"2048 802 OFFCURVE",
"2048 617 CURVE SMOOTH",
"2048 245 OFFCURVE",
"1853 -87 OFFCURVE",
"1539 -270 CURVE SMOOTH",
"1382 -362 OFFCURVE",
"1210 -408 OFFCURVE",
"1024 -408 CURVE SMOOTH",
"652 -408 OFFCURVE",
"320 -211 OFFCURVE",
"137 103 CURVE SMOOTH"
);
},
{
closed = 1;
nodes = (
"422 616 LINE",
"615 423 OFFCURVE",
"790 233 OFFCURVE",
"851 161 CURVE SMOOTH",
"897 106 LINE",
"908 124 OFFCURVE",
"923 148 OFFCURVE",
"942 179 CURVE SMOOTH",
"981 240 OFFCURVE",
"1117 445 OFFCURVE",
"1229 597 CURVE SMOOTH",
"1341 749 OFFCURVE",
"1503 946 OFFCURVE",
"1626 1055 CURVE",
"1602 1102 OFFCURVE",
"1577 1126 OFFCURVE",
"1552 1126 CURVE",
"1539 1118 OFFCURVE",
"1517 1103 OFFCURVE",
"1487 1082 CURVE SMOOTH",
"1457 1060 OFFCURVE",
"1380 993 OFFCURVE",
"1255 882 CURVE SMOOTH",
"1130 771 OFFCURVE",
"986 634 OFFCURVE",
"823 471 CURVE",
"532 725 LINE"
);
}
);
width = 2048;
}
);
unicode = 002F;
},
{
glyphname = underscore;
layers = (
{
layerId = "927F5022-3E08-455B-85C5-6C9BF0A86A02";
name = Regular;
paths = (
{
closed = 1;
nodes = (
"0 -410 LINE",
"0 1638 LINE",
"2785 1638 LINE",
"2785 -410 LINE"
);
},
{
closed = 1;
nodes = (
"328 567 LINE",
"977 844 LINE",
"977 1040 LINE",
"328 1315 LINE",
"328 1112 LINE",
"756 940 LINE",
"328 770 LINE"
);
},
{
closed = 1;
nodes = (
"1069 410 LINE",
"1720 410 LINE",
"1720 567 LINE",
"1069 567 LINE"
);
}
);
width = 2785;
}
);
unicode = 005F;
},
{
glyphname = braceleft;
layers = (
{
layerId = "927F5022-3E08-455B-85C5-6C9BF0A86A02";
name = Regular;
paths = (
{
closed = 1;
nodes = (
"0 856 LINE",
"965 856 LINE",
"481 373 LINE"
);
}
);
width = 964;
}
);
unicode = 007B;
},
{
glyphname = braceright;
layers = (
{
layerId = "927F5022-3E08-455B-85C5-6C9BF0A86A02";
name = Regular;
paths = (
{
closed = 1;
nodes = (
"0 373 LINE",
"481 856 LINE",
"965 373 LINE"
);
}
);
width = 964;
}
);
unicode = 007D;
},
{
glyphname = bracketleft;
layers = (
{
layerId = "927F5022-3E08-455B-85C5-6C9BF0A86A02";
name = Regular;
paths = (
{
closed = 1;
nodes = (
"0 1157 LINE",
"1083 1157 LINE",
"543 72 LINE"
);
}
);
width = 1083;
}
);
unicode = 005B;
},
{
glyphname = bracketright;
layers = (
{
layerId = "927F5022-3E08-455B-85C5-6C9BF0A86A02";
name = Regular;
paths = (
{
closed = 1;
nodes = (
"0 72 LINE",
"0 1157 LINE",
"1083 614 LINE"
);
}
);
width = 1083;
}
);
unicode = 005D;
},
{
glyphname = parenleft;
layers = (
{
layerId = "927F5022-3E08-455B-85C5-6C9BF0A86A02";
name = Regular;
paths = (
{
closed = 1;
nodes = (
"46 258 OFFCURVE",
"0 429 OFFCURVE",
"0 615 CURVE SMOOTH",
"0 986 OFFCURVE",
"196 1318 OFFCURVE",
"510 1501 CURVE SMOOTH",
"667 1592 OFFCURVE",
"838 1638 OFFCURVE",
"1024 1638 CURVE SMOOTH",
"1396 1638 OFFCURVE",
"1728 1443 OFFCURVE",
"1911 1129 CURVE SMOOTH",
"2002 972 OFFCURVE",
"2048 800 OFFCURVE",
"2048 615 CURVE SMOOTH",
"2048 243 OFFCURVE",
"1853 -89 OFFCURVE",
"1539 -272 CURVE SMOOTH",
"1382 -364 OFFCURVE",
"1210 -410 OFFCURVE",
"1024 -410 CURVE SMOOTH",
"652 -410 OFFCURVE",
"320 -213 OFFCURVE",
"137 101 CURVE SMOOTH"
);
},
{
closed = 1;
nodes = (
"643 614 LINE",
"1120 139 LINE",
"1266 285 LINE",
"936 614 LINE",
"1266 944 LINE",
"1120 1090 LINE"
);
}
);
width = 2048;
}
);
unicode = 0028;
},
{
glyphname = parenright;
layers = (
{
layerId = "927F5022-3E08-455B-85C5-6C9BF0A86A02";
name = Regular;
paths = (
{
closed = 1;
nodes = (
"46 258 OFFCURVE",
"0 429 OFFCURVE",
"0 615 CURVE SMOOTH",
"0 986 OFFCURVE",
"196 1318 OFFCURVE",
"510 1501 CURVE SMOOTH",
"667 1592 OFFCURVE",
"838 1638 OFFCURVE",
"1024 1638 CURVE SMOOTH",
"1396 1638 OFFCURVE",
"1728 1443 OFFCURVE",
"1911 1129 CURVE SMOOTH",
"2002 972 OFFCURVE",
"2048 800 OFFCURVE",
"2048 615 CURVE SMOOTH",
"2048 243 OFFCURVE",
"1853 -89 OFFCURVE",
"1539 -272 CURVE SMOOTH",
"1382 -364 OFFCURVE",
"1210 -410 OFFCURVE",
"1024 -410 CURVE SMOOTH",
"652 -410 OFFCURVE",
"320 -213 OFFCURVE",
"137 101 CURVE SMOOTH"
);
},
{
closed = 1;
nodes = (
"782 285 LINE",
"928 139 LINE",
"1405 614 LINE",
"928 1090 LINE",
"782 944 LINE",
"1112 614 LINE"
);
}
);
width = 2048;
}
);
unicode = 0029;
},
{
glyphname = emdash;
layers = (
{
layerId = "927F5022-3E08-455B-85C5-6C9BF0A86A02";
name = Regular;
paths = (
{
closed = 1;
nodes = (
"0 -410 LINE",
"0 1638 LINE",
"2048 1638 LINE",
"2048 -410 LINE"
);
}
);
width = 2048;
}
);
unicode = 2014;
},
{
glyphname = endash;
layers = (
{
layerId = "927F5022-3E08-455B-85C5-6C9BF0A86A02";
name = Regular;
paths = (
{
closed = 1;
nodes = (
"0 -410 LINE",
"0 1638 LINE",
"1024 1638 LINE",
"1024 -410 LINE"
);
}
);
width = 1024;
}
);
unicode = 2013;
},
{
glyphname = figuredash;
layers = (
{
layerId = "927F5022-3E08-455B-85C5-6C9BF0A86A02";
name = Regular;
paths = (
{
closed = 1;
nodes = (
"46 258 OFFCURVE",
"0 429 OFFCURVE",
"0 615 CURVE SMOOTH",
"0 986 OFFCURVE",
"196 1318 OFFCURVE",
"510 1501 CURVE SMOOTH",
"667 1592 OFFCURVE",
"838 1638 OFFCURVE",
"1024 1638 CURVE SMOOTH",
"1396 1638 OFFCURVE",
"1728 1443 OFFCURVE",
"1911 1129 CURVE SMOOTH",
"2002 972 OFFCURVE",
"2048 800 OFFCURVE",
"2048 615 CURVE SMOOTH",
"2048 243 OFFCURVE",
"1853 -89 OFFCURVE",
"1539 -272 CURVE SMOOTH",
"1382 -364 OFFCURVE",
"1210 -410 OFFCURVE",
"1024 -410 CURVE SMOOTH",
"652 -410 OFFCURVE",
"320 -213 OFFCURVE",
"137 101 CURVE SMOOTH"
);
},
{
closed = 1;
nodes = (
"422 496 LINE",
"1628 496 LINE",
"1628 737 LINE",
"422 737 LINE"
);
}
);
width = 2048;
}
);
unicode = 2012;
},
{
glyphname = hyphen;
layers = (
{
layerId = "927F5022-3E08-455B-85C5-6C9BF0A86A02";
name = Regular;
paths = (
{
closed = 1;
nodes = (
"46 258 OFFCURVE",
"0 429 OFFCURVE",
"0 615 CURVE SMOOTH",
"0 986 OFFCURVE",
"196 1318 OFFCURVE",
"510 1501 CURVE SMOOTH",
"667 1592 OFFCURVE",
"838 1638 OFFCURVE",
"1024 1638 CURVE SMOOTH",
"1396 1638 OFFCURVE",
"1728 1443 OFFCURVE",
"1911 1129 CURVE SMOOTH",
"2002 972 OFFCURVE",
"2048 800 OFFCURVE",
"2048 615 CURVE SMOOTH",
"2048 243 OFFCURVE",
"1853 -89 OFFCURVE",
"1539 -272 CURVE SMOOTH",
"1382 -364 OFFCURVE",
"1210 -410 OFFCURVE",
"1024 -410 CURVE SMOOTH",
"652 -410 OFFCURVE",
"320 -213 OFFCURVE",
"137 101 CURVE SMOOTH"
);
},
{
closed = 1;
nodes = (
"422 496 LINE",
"1628 496 LINE",
"1628 737 LINE",
"422 737 LINE"
);
}
);
width = 2048;
}
);
unicode = 002D;
},
{
glyphname = hyphentwo;
layers = (
{
layerId = "927F5022-3E08-455B-85C5-6C9BF0A86A02";
name = Regular;
paths = (
{
closed = 1;
nodes = (
"46 258 OFFCURVE",
"0 429 OFFCURVE",
"0 615 CURVE SMOOTH",
"0 986 OFFCURVE",
"196 1318 OFFCURVE",
"510 1501 CURVE SMOOTH",
"667 1592 OFFCURVE",
"838 1638 OFFCURVE",
"1024 1638 CURVE SMOOTH",
"1396 1638 OFFCURVE",
"1728 1443 OFFCURVE",
"1911 1129 CURVE SMOOTH",
"2002 972 OFFCURVE",
"2048 800 OFFCURVE",
"2048 615 CURVE SMOOTH",
"2048 243 OFFCURVE",
"1853 -89 OFFCURVE",
"1539 -272 CURVE SMOOTH",
"1382 -364 OFFCURVE",
"1210 -410 OFFCURVE",
"1024 -410 CURVE SMOOTH",
"652 -410 OFFCURVE",
"320 -213 OFFCURVE",
"137 101 CURVE SMOOTH"
);
},
{
closed = 1;
nodes = (
"422 496 LINE",
"1628 496 LINE",
"1628 737 LINE",
"422 737 LINE"
);
}
);
width = 2048;
}
);
unicode = 2010;
},
{
glyphname = nonbreakinghyphen;
layers = (
{
layerId = "927F5022-3E08-455B-85C5-6C9BF0A86A02";
name = Regular;
paths = (
{
closed = 1;
nodes = (
"46 258 OFFCURVE",
"0 429 OFFCURVE",
"0 615 CURVE SMOOTH",
"0 986 OFFCURVE",
"196 1318 OFFCURVE",
"510 1501 CURVE SMOOTH",
"667 1592 OFFCURVE",
"838 1638 OFFCURVE",
"1024 1638 CURVE SMOOTH",
"1396 1638 OFFCURVE",
"1728 1443 OFFCURVE",
"1911 1129 CURVE SMOOTH",
"2002 972 OFFCURVE",
"2048 800 OFFCURVE",
"2048 615 CURVE SMOOTH",
"2048 243 OFFCURVE",
"1853 -89 OFFCURVE",
"1539 -272 CURVE SMOOTH",
"1382 -364 OFFCURVE",
"1210 -410 OFFCURVE",
"1024 -410 CURVE SMOOTH",
"652 -410 OFFCURVE",
"320 -213 OFFCURVE",
"137 101 CURVE SMOOTH"
);
},
{
closed = 1;
nodes = (
"422 496 LINE",
"1628 496 LINE",
"1628 737 LINE",
"422 737 LINE"
);
}
);
width = 2048;
}
);
unicode = 2011;
},
{
glyphname = softhyphen;
layers = (
{
layerId = "927F5022-3E08-455B-85C5-6C9BF0A86A02";
name = Regular;
paths = (
{
closed = 1;
nodes = (
"46 258 OFFCURVE",
"0 429 OFFCURVE",
"0 615 CURVE SMOOTH",
"0 986 OFFCURVE",
"196 1318 OFFCURVE",
"510 1501 CURVE SMOOTH",
"667 1592 OFFCURVE",
"838 1638 OFFCURVE",
"1024 1638 CURVE SMOOTH",
"1396 1638 OFFCURVE",
"1728 1443 OFFCURVE",
"1911 1129 CURVE SMOOTH",
"2002 972 OFFCURVE",
"2048 800 OFFCURVE",
"2048 615 CURVE SMOOTH",
"2048 243 OFFCURVE",
"1853 -89 OFFCURVE",
"1539 -272 CURVE SMOOTH",
"1382 -364 OFFCURVE",
"1210 -410 OFFCURVE",
"1024 -410 CURVE SMOOTH",
"652 -410 OFFCURVE",
"320 -213 OFFCURVE",
"137 101 CURVE SMOOTH"
);
},
{
closed = 1;
nodes = (
"422 496 LINE",
"1628 496 LINE",
"1628 737 LINE",
"422 737 LINE"
);
}
);
width = 2048;
}
);
unicode = 00AD;
},
{
glyphname = quoteleft;
layers = (
{
layerId = "927F5022-3E08-455B-85C5-6C9BF0A86A02";
name = Regular;
paths = (
{
closed = 1;
nodes = (
"46 258 OFFCURVE",
"0 429 OFFCURVE",
"0 615 CURVE SMOOTH",
"0 986 OFFCURVE",
"196 1318 OFFCURVE",
"510 1501 CURVE SMOOTH",
"667 1592 OFFCURVE",
"838 1638 OFFCURVE",
"1024 1638 CURVE SMOOTH",
"1396 1638 OFFCURVE",
"1728 1443 OFFCURVE",
"1911 1129 CURVE SMOOTH",
"2002 972 OFFCURVE",
"2048 800 OFFCURVE",
"2048 615 CURVE SMOOTH",
"2048 243 OFFCURVE",
"1853 -89 OFFCURVE",
"1539 -272 CURVE SMOOTH",
"1382 -364 OFFCURVE",
"1210 -410 OFFCURVE",
"1024 -410 CURVE SMOOTH",
"652 -410 OFFCURVE",
"320 -213 OFFCURVE",
"137 101 CURVE SMOOTH"
);
},
{
closed = 1;
nodes = (
"311 494 LINE",
"363 194 OFFCURVE",
"603 -46 OFFCURVE",
"903 -98 CURVE",
"903 193 LINE",
"1145 193 LINE",
"1145 -98 LINE",
"1445 -46 OFFCURVE",
"1685 194 OFFCURVE",
"1737 494 CURVE",
"1446 494 LINE",
"1446 735 LINE",
"1737 735 LINE",
"1685 1035 OFFCURVE",
"1445 1275 OFFCURVE",
"1145 1327 CURVE",
"1145 1036 LINE",
"903 1036 LINE",
"903 1327 LINE",
"603 1275 OFFCURVE",
"363 1036 OFFCURVE",
"311 735 CURVE",
"602 735 LINE",
"602 494 LINE"
);
}
);
width = 2048;
}
);
unicode = 2018;
},
{
glyphname = quoteright;
layers = (
{
layerId = "927F5022-3E08-455B-85C5-6C9BF0A86A02";
name = Regular;
paths = (
{
closed = 1;
nodes = (
"0 -94 LINE",
"709 614 LINE",
"0 1323 LINE",
"315 1638 LINE",
"1024 930 LINE",
"1733 1638 LINE",
"2048 1323 LINE",
"1339 614 LINE",
"2048 -94 LINE",
"1733 -410 LINE",
"1024 299 LINE",
"315 -410 LINE"
);
}
);
width = 2048;
}
);
unicode = 2019;
},
{
glyphname = asciitilde;
layers = (
{
layerId = "927F5022-3E08-455B-85C5-6C9BF0A86A02";
name = Regular;
paths = (
{
closed = 1;
nodes = (
"46 260 OFFCURVE",
"0 431 OFFCURVE",
"0 617 CURVE SMOOTH",
"0 988 OFFCURVE",
"196 1320 OFFCURVE",
"510 1503 CURVE SMOOTH",
"667 1594 OFFCURVE",
"838 1640 OFFCURVE",
"1024 1640 CURVE SMOOTH",
"1396 1640 OFFCURVE",
"1728 1445 OFFCURVE",
"1911 1131 CURVE SMOOTH",
"2002 974 OFFCURVE",
"2048 802 OFFCURVE",
"2048 617 CURVE SMOOTH",
"2048 245 OFFCURVE",
"1853 -87 OFFCURVE",
"1539 -270 CURVE SMOOTH",
"1382 -362 OFFCURVE",
"1210 -408 OFFCURVE",
"1024 -408 CURVE SMOOTH",
"652 -408 OFFCURVE",
"320 -211 OFFCURVE",
"137 103 CURVE SMOOTH"
);
},
{
closed = 1;
nodes = (
"391 737 LINE",
"602 737 LINE",
"602 135 LINE",
"844 135 LINE",
"844 737 LINE",
"1055 737 LINE",
"723 1280 LINE"
);
},
{
closed = 1;
nodes = (
"993 498 LINE",
"1325 14 LINE",
"1657 498 LINE",
"1446 498 LINE",
"1446 1098 LINE",
"1204 1098 LINE",
"1204 498 LINE"
);
}
);
width = 2048;
}
);
unicode = 007E;
},
{
glyphname = greater;
layers = (
{
layerId = "927F5022-3E08-455B-85C5-6C9BF0A86A02";
name = Regular;
paths = (
{
closed = 1;
nodes = (
"0 -94 LINE",
"709 614 LINE",
"0 1323 LINE",
"315 1638 LINE",
"1339 614 LINE",
"315 -410 LINE"
);
}
);
width = 1339;
}
);
unicode = 003E;
},
{
glyphname = less;
layers = (
{
layerId = "927F5022-3E08-455B-85C5-6C9BF0A86A02";
name = Regular;
paths = (
{
closed = 1;
nodes = (
"0 614 LINE",
"1024 1638 LINE",
"1339 1323 LINE",
"631 614 LINE",
"1339 -94 LINE",
"1024 -410 LINE"
);
}
);
width = 1339;
}
);
unicode = 003C;
},
{
glyphname = percent;
layers = (
{
layerId = "927F5022-3E08-455B-85C5-6C9BF0A86A02";
name = Regular;
paths = (
{
closed = 1;
nodes = (
"0 -410 LINE",
"0 547 LINE",
"344 217 LINE",
"674 547 LINE SMOOTH",
"713 586 OFFCURVE",
"760 606 OFFCURVE",
"815 606 CURVE SMOOTH",
"924 606 OFFCURVE",
"1016 514 OFFCURVE",
"1016 406 CURVE SMOOTH",
"1016 351 OFFCURVE",
"996 304 OFFCURVE",
"956 264 CURVE SMOOTH",
"627 -66 LINE",
"956 -410 LINE"
);
},
{
closed = 1;
nodes = (
"1052 721 OFFCURVE",
"1032 768 OFFCURVE",
"1032 823 CURVE SMOOTH",
"1032 878 OFFCURVE",
"1052 925 OFFCURVE",
"1092 965 CURVE SMOOTH",
"1421 1294 LINE",
"1092 1638 LINE",
"2048 1638 LINE",
"2048 682 LINE",
"1704 1012 LINE",
"1374 682 LINE SMOOTH",
"1335 643 OFFCURVE",
"1288 623 OFFCURVE",
"1233 623 CURVE SMOOTH",
"1178 623 OFFCURVE",
"1131 643 OFFCURVE",
"1092 682 CURVE SMOOTH"
);
}
);
width = 2048;
}
);
unicode = 0025;
},
{
glyphname = plus;
layers = (
{
layerId = "927F5022-3E08-455B-85C5-6C9BF0A86A02";
name = Regular;
paths = (
{
closed = 1;
nodes = (
"46 258 OFFCURVE",
"0 429 OFFCURVE",
"0 615 CURVE SMOOTH",
"0 986 OFFCURVE",
"196 1318 OFFCURVE",
"510 1501 CURVE SMOOTH",
"667 1592 OFFCURVE",
"838 1638 OFFCURVE",
"1024 1638 CURVE SMOOTH",
"1396 1638 OFFCURVE",
"1728 1443 OFFCURVE",
"1911 1129 CURVE SMOOTH",
"2002 972 OFFCURVE",
"2048 800 OFFCURVE",
"2048 615 CURVE SMOOTH",
"2048 243 OFFCURVE",
"1853 -89 OFFCURVE",
"1539 -272 CURVE SMOOTH",
"1382 -364 OFFCURVE",
"1210 -410 OFFCURVE",
"1024 -410 CURVE SMOOTH",
"652 -410 OFFCURVE",
"320 -213 OFFCURVE",
"137 101 CURVE SMOOTH"
);
},
{
closed = 1;
nodes = (
"422 496 LINE",
"905 496 LINE",
"905 12 LINE",
"1147 12 LINE",
"1147 496 LINE",
"1628 496 LINE",
"1628 737 LINE",
"1147 737 LINE",
"1147 1219 LINE",
"905 1219 LINE",
"905 737 LINE",
"422 737 LINE"
);
}
);
width = 2048;
}
);
unicode = 002B;
},
{
glyphname = ampersand;
layers = (
{
layerId = "927F5022-3E08-455B-85C5-6C9BF0A86A02";
name = Regular;
paths = (
{
closed = 1;
nodes = (
"46 258 OFFCURVE",
"0 429 OFFCURVE",
"0 615 CURVE SMOOTH",
"0 986 OFFCURVE",
"196 1318 OFFCURVE",
"510 1501 CURVE SMOOTH",
"667 1592 OFFCURVE",
"838 1638 OFFCURVE",
"1024 1638 CURVE SMOOTH",
"1396 1638 OFFCURVE",
"1728 1443 OFFCURVE",
"1911 1129 CURVE SMOOTH",
"2002 972 OFFCURVE",
"2048 800 OFFCURVE",
"2048 615 CURVE SMOOTH",
"2048 243 OFFCURVE",
"1853 -89 OFFCURVE",
"1539 -272 CURVE SMOOTH",
"1382 -364 OFFCURVE",
"1210 -410 OFFCURVE",
"1024 -410 CURVE SMOOTH",
"652 -410 OFFCURVE",
"320 -213 OFFCURVE",
"137 101 CURVE SMOOTH"
);
},
{
closed = 1;
nodes = (
"492 82 LINE",
"1065 82 LINE",
"856 319 LINE",
"1319 782 LINE",
"1556 573 LINE",
"1556 1147 LINE",
"983 1147 LINE",
"1192 909 LINE",
"1165 883 LINE",
"729 446 LINE",
"492 655 LINE"
);
}
);
width = 2048;
}
);
unicode = 0026;
},
{
glyphname = at;
layers = (
{
layerId = "927F5022-3E08-455B-85C5-6C9BF0A86A02";
name = Regular;
paths = (
{
closed = 1;
nodes = (
"0 1415 LINE SMOOTH",
"0 1532 OFFCURVE",
"98 1630 OFFCURVE",
"215 1630 CURVE SMOOTH",
"2574 1630 LINE SMOOTH",
"2691 1630 OFFCURVE",
"2789 1532 OFFCURVE",
"2789 1415 CURVE SMOOTH",
"2789 -193 LINE SMOOTH",
"2789 -313 OFFCURVE",
"2691 -408 OFFCURVE",
"2574 -408 CURVE SMOOTH",
"215 -408 LINE SMOOTH",
"98 -408 OFFCURVE",
"0 -313 OFFCURVE",
"0 -193 CURVE SMOOTH"
);
},
{
closed = 1;
nodes = (
"322 -86 LINE",
"2468 -86 LINE",
"2468 1057 LINE",
"1456 213 LINE",
"1331 213 LINE",
"322 1057 LINE"
);
},
{
closed = 1;
nodes = (
"356 1309 LINE",
"1395 442 LINE",
"2433 1309 LINE"
);
}
);
width = 2785;
}
);
unicode = 0040;
},
{
glyphname = trademark;
layers = (
{
layerId = "927F5022-3E08-455B-85C5-6C9BF0A86A02";
name = Regular;
paths = (
{
closed = 1;
nodes = (
"1894 -410 LINE",
"1894 1638 LINE",
"4679 1638 LINE",
"4679 -410 LINE"
);
},
{
closed = 1;
nodes = (
"2058 -82 LINE",
"2058 -246 LINE",
"2304 -246 LINE",
"2304 -82 LINE"
);
},
{
closed = 1;
nodes = (
"2058 82 LINE",
"2713 82 LINE",
"2713 1147 LINE",
"2058 1147 LINE"
);
},
{
closed = 1;
nodes = (
"2058 1311 LINE",
"2304 1311 LINE",
"2304 1475 LINE",
"2058 1475 LINE"
);
},
{
closed = 1;
nodes = (
"2467 -82 LINE",
"2467 -246 LINE",
"2713 -246 LINE",
"2713 -82 LINE"
);
},
{
closed = 1;
nodes = (
"2467 1311 LINE",
"2713 1311 LINE",
"2713 1475 LINE",
"2467 1475 LINE"
);
},
{
closed = 1;
nodes = (
"2959 -82 LINE",
"2959 -246 LINE",
"3205 -246 LINE",
"3205 -82 LINE"
);
},
{
closed = 1;
nodes = (
"2959 82 LINE",
"3614 82 LINE",
"3614 1147 LINE",
"2959 1147 LINE"
);
},
{
closed = 1;
nodes = (
"2959 1311 LINE",
"3205 1311 LINE",
"3205 1475 LINE",
"2959 1475 LINE"
);
},
{
closed = 1;
nodes = (
"3369 -82 LINE",
"3369 -246 LINE",
"3614 -246 LINE",
"3614 -82 LINE"
);
},
{
closed = 1;
nodes = (
"3369 1311 LINE",
"3614 1311 LINE",
"3614 1475 LINE",
"3369 1475 LINE"
);
},
{
closed = 1;
nodes = (
"3860 -82 LINE",
"3860 -246 LINE",
"4106 -246 LINE",
"4106 -82 LINE"
);
},
{
closed = 1;
nodes = (
"3860 82 LINE",
"4515 82 LINE",
"4515 1147 LINE",
"3860 1147 LINE"
);
},
{
closed = 1;
nodes = (
"3860 1311 LINE",
"4106 1311 LINE",
"4106 1475 LINE",
"3860 1475 LINE"
);
},
{
closed = 1;
nodes = (
"4270 -82 LINE",
"4270 -246 LINE",
"4515 -246 LINE",
"4515 -82 LINE"
);
},
{
closed = 1;
nodes = (
"4270 1311 LINE",
"4515 1311 LINE",
"4515 1475 LINE",
"4270 1475 LINE"
);
},
{
closed = 1;
nodes = (
"0 285 OFFCURVE",
"27 380 OFFCURVE",
"61 450 CURVE SMOOTH",
"95 520 OFFCURVE",
"166 582 OFFCURVE",
"221 622 CURVE SMOOTH",
"276 661 OFFCURVE",
"383 700 OFFCURVE",
"449 720 CURVE SMOOTH",
"515 740 OFFCURVE",
"646 764 OFFCURVE",
"710 773 CURVE SMOOTH",
"742 778 OFFCURVE",
"787 784 OFFCURVE",
"844 791 CURVE SMOOTH",
"912 799 OFFCURVE",
"980 809 OFFCURVE",
"1049 821 CURVE SMOOTH",
"1114 832 OFFCURVE",
"1137 837 OFFCURVE",
"1194 858 CURVE SMOOTH",
"1251 879 OFFCURVE",
"1276 900 OFFCURVE",
"1300 945 CURVE",
"1311 968 OFFCURVE",
"1317 994 OFFCURVE",
"1317 1024 CURVE SMOOTH",
"1317 1196 OFFCURVE",
"1201 1282 OFFCURVE",
"969 1282 CURVE SMOOTH",
"732 1282 OFFCURVE",
"621 1209 OFFCURVE",
"586 985 CURVE",
"86 985 LINE",
"102 1230 OFFCURVE",
"211 1408 OFFCURVE",
"382 1504 CURVE SMOOTH",
"553 1599 OFFCURVE",
"746 1638 OFFCURVE",
"983 1638 CURVE SMOOTH",
"1168 1638 OFFCURVE",
"1317 1622 OFFCURVE",
"1467 1565 CURVE SMOOTH",
"1617 1508 OFFCURVE",
"1717 1422 OFFCURVE",
"1780 1271 CURVE SMOOTH",
"1811 1195 OFFCURVE",
"1827 1107 OFFCURVE",
"1827 1008 CURVE SMOOTH",
"1827 172 LINE SMOOTH",
"1827 -3 OFFCURVE",
"1824 -36 OFFCURVE",
"1845 -173 CURVE SMOOTH",
"1856 -242 OFFCURVE",
"1872 -302 OFFCURVE",
"1894 -354 CURVE",
"1354 -354 LINE",
"1333 -299 OFFCURVE",
"1321 -237 OFFCURVE",
"1317 -166 CURVE",
"1153 -329 OFFCURVE",
"944 -410 OFFCURVE",
"690 -410 CURVE SMOOTH",
"430 -410 OFFCURVE",
"225 -336 OFFCURVE",
"97 -155 CURVE SMOOTH",
"32 -65 OFFCURVE",
"0 45 OFFCURVE",
"0 176 CURVE SMOOTH"
);
},
{
closed = 1;
nodes = (
"547 30 OFFCURVE",
"668 -61 OFFCURVE",
"840 -61 CURVE SMOOTH",
"1121 -61 OFFCURVE",
"1313 95 OFFCURVE",
"1313 371 CURVE SMOOTH",
"1313 588 LINE",
"1222 536 OFFCURVE",
"1056 507 OFFCURVE",
"929 488 CURVE SMOOTH",
"802 468 OFFCURVE",
"671 443 OFFCURVE",
"600 361 CURVE SMOOTH",
"565 320 OFFCURVE",
"547 266 OFFCURVE",
"547 199 CURVE SMOOTH"
);
}
);
width = 4679;
}
);
unicode = 2122;
},
{
glyphname = grave;
layers = (
{
layerId = "927F5022-3E08-455B-85C5-6C9BF0A86A02";
name = Regular;
paths = (
{
closed = 1;
nodes = (
"46 258 OFFCURVE",
"0 429 OFFCURVE",
"0 615 CURVE SMOOTH",
"0 986 OFFCURVE",
"196 1318 OFFCURVE",
"510 1501 CURVE SMOOTH",
"667 1592 OFFCURVE",
"838 1638 OFFCURVE",
"1024 1638 CURVE SMOOTH",
"1396 1638 OFFCURVE",
"1728 1443 OFFCURVE",
"1911 1129 CURVE SMOOTH",
"2002 972 OFFCURVE",
"2048 800 OFFCURVE",
"2048 615 CURVE SMOOTH",
"2048 243 OFFCURVE",
"1853 -89 OFFCURVE",
"1539 -272 CURVE SMOOTH",
"1382 -364 OFFCURVE",
"1210 -410 OFFCURVE",
"1024 -410 CURVE SMOOTH",
"652 -410 OFFCURVE",
"320 -213 OFFCURVE",
"137 101 CURVE SMOOTH"
);
},
{
closed = 1;
nodes = (
"311 494 LINE",
"363 194 OFFCURVE",
"603 -46 OFFCURVE",
"903 -98 CURVE",
"903 193 LINE",
"1145 193 LINE",
"1145 -98 LINE",
"1445 -46 OFFCURVE",
"1685 194 OFFCURVE",
"1737 494 CURVE",
"1446 494 LINE",
"1446 735 LINE",
"1737 735 LINE",
"1685 1035 OFFCURVE",
"1445 1275 OFFCURVE",
"1145 1327 CURVE",
"1145 1036 LINE",
"903 1036 LINE",
"903 1327 LINE",
"603 1275 OFFCURVE",
"363 1036 OFFCURVE",
"311 735 CURVE",
"602 735 LINE",
"602 494 LINE"
);
}
);
width = 2048;
}
);
unicode = 0060;
},
{
glyphname = uniE000;
layers = (
{
layerId = "927F5022-3E08-455B-85C5-6C9BF0A86A02";
name = Regular;
paths = (
{
closed = 1;
nodes = (
"0 1520 LINE",
"1520 1520 LINE",
"1520 0 LINE",
"0 0 LINE"
);
}
);
width = 1520;
}
);
unicode = E000;
},
{
glyphname = "A-cy";
lastChange = "2013-04-17 23:46:34 +0300";
layers = (
{
layerId = "927F5022-3E08-455B-85C5-6C9BF0A86A02";
name = Regular;
paths = (
{
closed = 1;
nodes = (
"0 828 OFFCURVE",
"22 800 OFFCURVE",
"59 772 CURVE SMOOTH",
"623 362 LINE",
"408 -299 LINE SMOOTH",
"400 -322 OFFCURVE",
"395 -346 OFFCURVE",
"395 -362 CURVE SMOOTH",
"395 -392 OFFCURVE",
"409 -410 OFFCURVE",
"432 -410 CURVE SMOOTH",
"453 -410 OFFCURVE",
"483 -397 OFFCURVE",
"512 -375 CURVE SMOOTH",
"1075 33 LINE",
"1075 33 OFFCURVE",
"1075 1638 OFFCURVE",
"1075 1638 CURVE",
"1050 1638 OFFCURVE",
"1026 1608 OFFCURVE",
"1010 1556 CURVE SMOOTH",
"797 893 LINE",
"100 895 LINE SMOOTH",
"37 895 OFFCURVE",
"0 878 OFFCURVE",
"0 848 CURVE SMOOTH"
);
}
